<?xml version="1.0"?>
<svg xmlns="http://www.w3.org/2000/svg" version="1.2" baseProfile="tiny" width="800" height="947" viewBox="0 0 800 947" stroke-linecap="round" stroke-linejoin="round">
<g id="selection">
<path d="M 698.45 133.81 714.02 147.16 731.2 155.51 771 164.72 763.15 183.5 766.31 205.01 773.38 227.14 777.49 247.84 775.33 263.79 755.55 311.07 752.65 328.49 760.1 390.17 764.58 406.92 792.82 458.03 799 507.04 796.9 661.18 787.26 657.29 772.55 644.06 762.97 642.39 722.86 642.21 724.16 660.13 714.02 712.97 704.69 762.1 694.18 817.05 695.43 853.92 695.82 865.31 697.33 909.63 700.67 918.4 704.75 924.89 707.78 931.26 709.51 938.06 709.82 945.97 656.2 945.35 598.76 944.61 511.68 943.56 445.67 942.75 405.56 935.46 344.1 916.55 298.33 902.46 277.15 895.93 224.73 879.78 215.7 874.34 206.46 866.06 177.91 827.55 116.51 777.8 103.1 757.04 100.56 742.14 106.74 718.66 107.49 703.76 103.96 691.9 97.6 683.06 80.48 666.8 72.57 655.99 62.23 628.66 59.19 620.64 52.33 628.24 43.15 635.22 33.01 640.29 23.06 642.02 12.68 642.58 8.63 628.61 2.67 587.57 1.74 505 1 441.35 13.95 396.54 69.42 333.31 112.8 283.93 153.41 218.73 185.61 149.08 194.72 117.56 202.48 105.08 255.44 62.37 315.76 13.79 332.57 6.19 353.28 1.25 370.89 1 386.09 5.57 449.44 42.59 512.79 79.61 567.7 111.75 577.49 117.48 629.88 148.15 647.09 152.85 664.15 149.2 698.45 133.81 Z"/>
</g>
</svg>