<?xml version="1.0"?>
<svg xmlns="http://www.w3.org/2000/svg" version="1.2" baseProfile="tiny" width="800" height="575" viewBox="0 0 800 575" stroke-linecap="round" stroke-linejoin="round">
<g id="selection">
<path d="M 455.83 282.77 455.04 282.18 454.49 281.55 454.09 280.83 453.76 280.03 454.25 279.97 454.92 280.02 455.71 280.38 456.3 280.75 456.94 280.87 457.87 280.49 457.56 281.24 456.01 282.23 455.83 282.77 Z M 540.68 301.12 541.59 302.6 541.91 302.98 541.92 302.99 540.85 303.32 540.11 302.67 540 301.68 540.68 301.12 Z M 581.59 15.45 581.51 15.86 581.48 16.61 581.49 17.04 582.51 17.4 582.95 17.84 583.07 18.53 583.16 18.68 583.25 18.82 583.63 18.77 584.05 18.62 584.81 18.55 585.53 18.32 585.85 18.35 586.52 18.58 586.87 18.77 586.87 18.94 586.77 19.15 586.83 19.46 587.09 20.07 587.26 20.23 587.7 20.38 588.08 20.42 588.53 20.38 588.91 20.21 589.11 19.9 589.39 19.3 589.92 19.06 590.63 19.08 591.73 19.32 593.21 19.89 593.6 19.84 594 19.73 594.42 19.74 595.44 20.51 595.58 21.8 595.19 23.22 594.65 24.34 594.2 24.78 592.74 25.93 592.45 26.23 592.89 27 593.54 27.54 594.32 27.87 595.19 28.04 596.16 28.1 596.76 27.95 597.07 27.47 597.15 26.55 597.4 25.83 598.01 25.33 598.8 25.11 599.6 25.26 598.86 25.73 598.57 26.2 598.73 26.67 599.33 27.18 600 27.47 602.06 27.74 603.27 28.24 604.43 28.93 605.76 28.84 606.07 28.93 606.66 29.21 606.92 29.37 608.15 29.48 608.74 29.61 609.17 29.98 610.41 30.66 611.76 30.98 614.59 31.15 617.32 30.79 618.27 31.03 618.79 32.02 618.94 32.3 618.92 32.54 618.8 32.71 618.76 32.9 618.96 33.22 619.32 33.48 619.67 33.51 620.01 33.47 620.37 33.52 621.59 34.07 622.22 34.46 623.59 35.82 623.65 35.97 623.58 36.13 623.57 36.26 623.81 36.34 624.38 36.34 624.54 36.37 624.74 36.59 624.69 36.82 624.69 37.03 625.03 37.2 625.31 37.17 625.9 36.87 626.21 36.79 626.28 35.94 627.18 35.96 629.09 36.62 630.18 36.56 631.03 36.18 632.74 35.19 633.04 35.42 633.32 35.34 633.57 35.07 633.76 34.72 634.31 35.1 634.39 35.13 636.45 36.06 636.87 36.72 637.82 36.8 638.85 36.59 639.48 36.39 639.41 37.01 639.61 37.62 640.04 38.15 640.62 38.5 640.84 38.7 640.89 38.95 640.99 39.18 641.36 39.3 641.81 39.39 642.06 39.56 642.22 39.73 642.43 39.89 643.83 40.3 645.05 40.22 647.79 39.47 649.97 39.23 650.63 38.9 651.21 38.83 653.09 39.2 653.66 39.41 654.42 40.4 654.97 40.88 655.5 40.83 656.49 39.79 657.12 39.32 657.77 39.15 658.75 39.77 658.82 39.88 658.81 40.03 658.84 40.18 659.01 40.3 659.72 40.4 660.41 40.38 661.76 40.11 662.35 40.29 666.77 40.2 668.03 40.32 668.5 40.2 668.73 39.91 668.8 39.82 668.84 39.25 668.6 38.71 668.17 38.32 667.67 38.19 667.89 37.83 668.02 37.68 668.28 37.53 667.89 37.13 668.39 36.13 668.31 35.37 668.48 34.86 669.3 34.63 670.27 34.58 670.89 34.62 672.12 34.98 672.74 35.08 673.42 35.03 674.03 35.11 675.56 35.77 676.62 36.08 676.92 36.25 677.49 36.66 677.87 36.78 678.21 36.65 678.54 36.45 678.9 36.36 679.2 36.45 679.79 36.8 680.06 36.92 683.09 37.07 683.83 37.24 684.45 37.66 684.8 38.17 685.07 38.72 685.43 39.21 686.04 39.53 686.43 39.57 687.61 39.29 691.98 39.3 692.82 39.47 692.66 39.97 692.84 40.11 693.17 40.13 693.47 40.24 694.1 41.08 694.78 41.77 695.38 42.99 695.89 43.48 695.73 43.7 695.53 44.05 695.49 44.39 695.79 44.54 695.78 44.67 695.2 45.43 695.08 45.83 695.88 45.75 696.5 46.16 696.62 46.72 695.92 47.09 695.72 47.13 695.12 47.33 696.14 48.51 696.14 48.96 696.55 49.18 698.7 49.39 698.99 49.37 699.4 49.2 699.62 49 699.77 48.79 699.97 48.63 702.21 48.41 703.34 48.06 703.73 47.1 703.86 46.99 703.96 46.95 704.06 46.98 704.15 47.09 704.58 47.2 705 47.2 705.4 47.06 705.74 46.77 705.84 46.82 705.91 46.89 705.94 46.98 705.92 47.09 706.57 47.29 708.78 47.51 709.52 47.74 711.51 48.75 712.34 48.9 713.01 48.92 713.55 49.1 714.04 49.7 714.5 51.03 714.84 51.57 715.54 52.02 715.97 52.23 716.45 52.29 717.38 52.21 717.96 52.1 718.37 51.9 718.97 51.43 719.81 50.95 719.98 50.74 720.25 50.22 720.42 50.03 720.98 49.84 722.66 49.99 724.85 49.49 725.96 49.4 726.95 49.81 727.38 50.07 729.44 50.79 730.55 50.97 731.11 50.99 731.37 51.56 731.93 52.11 732.61 52.52 733.27 52.65 733.99 52.95 734.38 53.05 734.75 53.04 734.99 52.87 735.29 52.29 735.56 52.1 736.25 52.09 737.88 52.5 738.66 52.61 739.61 52.57 739.59 52.42 739.15 52.05 738.83 51.37 739.11 51.07 740.61 50.19 741.24 49.95 741.96 49.91 743.35 50.07 744.09 49.99 744.66 49.72 745.73 48.95 746.3 48.7 746.87 48.65 747.48 48.67 748.07 48.59 749.24 47.92 750.38 48.25 750.99 47.95 751.37 48.01 752.4 48.03 752.64 48.08 752.86 48.47 753.14 48.81 753.49 49.08 753.91 49.28 754.64 49.45 755.55 49.52 756.47 49.49 758 49.29 757.92 49.77 757.62 50.53 757.77 51.09 757.77 51.7 758.23 52.2 758.83 52.55 759.62 52.45 760.45 52.43 760.91 52.92 761.16 52.92 761.54 52.65 762 52.72 762.85 53.14 762.01 54.38 761.88 54.74 761.77 55.27 761.49 55.53 761.17 55.73 760.91 56.09 760.35 55.88 759.04 56.09 757.92 55.74 757.62 55.39 756.96 55.49 756.21 56.09 755.8 56.85 755.75 58.11 755.72 58.98 755.93 59.61 756.5 60.07 757.73 60.62 758.41 61.3 759.19 62.17 759.14 62.61 758.67 62.96 758.53 63.42 758.74 63.98 758.93 64.71 758.96 64.95 759.1 65.14 759.76 65.55 759.94 65.82 759.82 66.51 758.94 67.65 758.5 68.56 757.92 69.02 756.91 70.08 755.73 70 754.38 70.74 754.04 71.72 753.02 72.15 749.85 74.02 749.21 74.79 748.07 75 747.23 75.16 746.31 75.33 745.92 75.42 745.75 75.5 745.21 75.87 745.1 76.03 744.96 76.29 744.63 76.35 744.21 76.33 743.73 77.16 739.24 78.59 732.07 81.08 731.34 81.65 729.3 82.71 726.65 83.56 725.61 84.15 724.65 85.13 722.93 87.4 721.92 88.47 720.76 89.29 718.27 90.32 716.83 90.63 714.4 90.81 712.02 91.28 711.3 91.61 710.95 91.69 709.74 91.65 702.81 93.24 699.79 93.41 690.88 95.93 688.39 96.34 688.12 96.51 687.49 97.36 687.36 97.63 687.18 97.84 686.8 97.98 685.95 97.59 685.69 97.51 684.13 97.54 682.64 97.75 681.29 98.22 680.33 98.65 676.32 101.66 674.38 103.62 670.53 106.61 669.85 107.64 670.79 108.06 671.81 108.37 672.24 108.35 672.41 108.17 672.28 107.91 671.81 107.64 672.4 107.68 672.88 107.87 673.29 108.17 674.14 108.98 675.06 109.55 675.5 109.52 676.19 109.7 676.14 110.44 675.63 111.18 675.29 111.57 673.01 112.08 672.03 112.74 670.28 114.83 669.22 115.47 668.18 115.77 667.05 115.89 666.22 114.87 667.92 114.71 668.72 115.14 669.9 114.58 671.19 113.04 670.47 112.96 669.4 113.03 666.48 113.75 665.78 114.11 665.19 114.59 664.66 115.22 663.56 117.28 662.98 118.35 662.35 119.02 661.74 119.53 661.26 120.12 661.03 121.03 660.11 121.75 657.64 125.41 657.23 125.79 656.27 126.38 655.8 126.76 654.6 128.08 652.49 129.43 650.33 132.72 649.36 133.52 647.55 134.38 646.64 135.41 645.1 137.93 644.19 139 641.97 140.91 638.31 145.61 638.12 145.98 638.04 146.83 637.8 147.43 637.41 147.88 636.57 148.6 636.08 149.12 635.65 149.75 635.46 150.34 635.23 150.79 634.12 152.04 633.74 152.67 633.48 153.94 633.6 155.7 633.84 157.21 634.52 159.56 636.74 163.34 637.13 163.91 637.57 164.53 637.13 164.76 636.62 165.08 636.82 165.72 637.17 167.01 637.76 168.18 638.68 169.48 639.6 170.9 640.93 172.71 641.45 173.23 642.78 174.05 644.11 175.13 644.86 175.6 645.83 175.79 647.44 175.91 649.14 176.3 650.67 176.97 651.78 177.94 651.63 178 651.27 178.21 651.69 178.36 651.97 178.59 652.93 179.2 653.28 179.12 653.51 179.56 653.52 180.11 653.28 180.39 652.62 180.42 652.02 180.53 651.48 180.76 650.97 181.13 650.56 181.88 650.49 181.97 650.35 182.1 649.67 182.13 649.41 182.22 648.94 182.59 648.53 182.76 648.15 183 647.8 183.56 648.06 184.06 647.35 183.92 646.86 184.02 646.39 184.19 645.74 184.28 644.68 184.29 644.19 184.43 643.68 184.74 643.27 185.33 643.25 185.84 643.31 186.33 643.08 186.84 642.53 187.29 642.01 187.45 640.54 187.45 638.93 187.74 638.04 188.01 636.91 188.65 633.53 189.77 632.99 190.07 632.77 190.48 632.49 190.62 631.19 191.76 630.81 192.29 630.66 192.98 630.67 193.35 630.54 193.5 629.4 193.55 628.89 193.67 628.52 193.96 628.39 194.49 627.13 194.44 626.81 195.84 627.34 199.09 626.93 199.5 626.31 199.62 625.04 199.55 624.24 199.71 623.6 200.12 623.09 200.68 622.71 201.26 622.49 201.77 622.34 202.32 622.23 203.82 622.07 206.16 622 206.81 621.68 207.13 620.74 207.42 620.07 207.98 619.73 208.46 618.31 211.28 618.23 211.86 618.24 211.9 618.4 213.31 618.23 213.66 617.27 212.72 616.4 214.59 615.93 214.9 615.14 215.08 614.85 215.57 614.97 216.23 616.14 217.9 616.49 218.25 617.63 218.84 618.44 219.15 619.15 219.22 619.45 218.79 620.1 219.09 620.34 219.51 620.2 219.93 619.69 220.24 619.4 220.5 619.09 220.64 618.77 220.64 618.45 220.47 618.12 220.63 617.14 220.92 616.56 221.03 615.55 221.46 614.22 221.46 613.76 221.53 613.27 221.72 612.4 222.18 612.1 222 610.69 221.46 609.52 221.28 607.27 221.24 606.64 221.3 606.08 221.46 605.68 221.73 605.49 222.07 605.6 222.41 606 223.03 604.88 222.82 603.82 222.61 603.6 222.21 603.41 221.9 602.67 221.8 601.63 221.47 601.14 221.36 600.61 221.79 600.47 222.12 599.47 222.09 598.27 221.97 597.22 222.39 596.66 222.7 595.08 223.93 594.49 224.23 593.78 224.35 593.59 224.42 593.31 224.59 593.05 224.79 592.94 224.96 592.84 225.13 592.47 226.3 592.43 226.53 592.13 226.72 591.92 226.67 591.73 226.55 591.49 226.53 591.17 226.69 590.47 227.18 590.14 227.28 589.62 227.36 587.81 227.98 587 228.38 586.84 228.8 586.6 229.08 585.96 229.01 585.63 229.33 585.43 229.95 584.96 230.67 583.91 231.88 581.83 233.55 580.93 234.55 580.3 236 580.04 237.23 579.61 238.19 579.42 239.18 578.37 241.35 577.62 242.33 577.59 242.77 577.69 243.09 577.82 243.36 577.88 243.67 577.82 243.98 577.65 244.16 577.38 244.25 576.58 244.3 576.37 244.38 575.92 244.73 574.68 245.42 574.19 245.9 573.82 247.36 573.41 247.79 572.85 248.12 572.27 248.63 572.13 248.9 571.95 249.57 571.76 249.86 571.44 250.03 571.05 250.11 570.71 250.22 570.35 250.9 569.8 251.24 569.09 251.47 568.4 251.56 567.07 251.22 566.07 250.4 565.21 249.43 564.26 248.63 563 248 562.26 247.77 561.46 247.68 560.8 247.79 559.65 248.28 558.93 248.41 558.6 248.34 557.64 248 557.22 247.92 554.4 248.32 553.83 248.59 553.13 249.94 552.4 251.52 551.5 252.28 551.32 252.38 550.92 252.72 550.02 253.03 548.82 253.17 548.18 252.98 547.46 253.23 546.52 252.72 545.83 252.27 545.18 252.04 544.86 252.12 544.53 252.45 544.21 252.52 543.84 252.36 542.87 251.31 541.88 250.75 541.19 250.7 539.26 251.22 536.12 250.77 533.27 250.95 530.75 250.59 527.14 250.94 526.62 251.22 526.12 251.61 525.4 252.04 524.11 252.69 521.89 252.67 520.53 251.79 519.82 251.88 519.33 252.09 518.03 251.59 517.51 251.02 516.4 251.07 515.22 251.14 514.72 251.51 512.9 251.68 510.34 251.03 509.09 250.69 507.29 250.99 504.75 251.58 501.36 250.83 500.53 250.99 499.46 251.62 496.38 251.99 495.4 252.09 489.07 251.69 488.46 251.83 488 252.15 487.01 253.54 486.81 253.84 486.33 254.26 485.95 254.78 485.8 255.35 484.76 256.76 482.52 257.01 481.56 258.54 480.33 259.2 479.99 259.35 479.25 259.6 477.74 259.87 476.27 259.84 472.15 259.42 471.36 259.39 471.02 259.48 470.62 259.74 468.11 261.15 465.69 261.32 464.05 262.14 463.62 262.26 462.32 262.39 461.75 262.55 461.29 262.77 460.83 263.27 459.85 264.66 459.83 265 459.23 266.29 458.91 266.82 458.74 266.98 458.48 267.17 458.19 267.34 457.6 267.52 457.64 267.79 457.79 268.11 457.39 268.58 456.23 270.33 456.06 270.69 455.9 272.35 455.2 272.35 454.91 271.57 454.34 271.24 453.51 271 452.82 270.98 452.71 271.33 452.38 271.63 452.22 272.08 452.25 272.58 452.49 273.05 452.31 273.3 452.41 273.85 452.6 274.2 452.71 274.49 452.6 274.89 452.35 275.13 452.11 275.32 451.37 275.56 447.82 276.59 447.31 276.86 446.21 277.13 445.58 276.05 444.09 275.37 443.46 274.97 442.62 275.23 441.88 275.03 441.18 274.67 439.68 274.32 439.14 273.92 438.38 273.01 436.07 271.19 435.38 270.83 434.61 270.84 433.03 271.08 431.14 270.63 430.23 269.65 429.53 268.47 428.73 267.4 426.79 266.56 426.56 266.05 426.47 265.46 426.24 264.82 425.92 264.21 424.7 263.08 423.86 261.52 423.33 260.46 422.53 259.22 421.76 258.7 421.46 258.41 421.89 258.25 422.19 258.3 423.32 259.14 423.62 259.46 423.44 259.76 423.7 260.1 424.24 260.59 424.68 260.51 424.95 260.31 425.33 259.84 426.09 259.14 425.84 259.12 425.11 259.31 424.49 259.24 424.21 258.7 424.43 257.62 424.12 256.94 422.41 255.64 422.03 255.48 419.62 255.35 418.98 255.22 418.45 254.77 418.02 253.36 417.64 252.68 417.15 252.02 416.92 251.35 417.08 250.72 417.75 250.13 418.4 249.87 419.72 249.49 420.19 249.16 420.56 248.34 420.26 246.86 420.46 246.02 421.66 245.18 424.53 245.36 425.54 244.3 424.86 244.67 423.95 244.97 423.05 244.98 422.39 244.52 420.89 244.99 420.22 245.4 419.95 246.14 420.16 248.28 419.95 248.68 418.69 248.7 417.69 247.65 416.54 245.29 415.74 244.18 414.73 243.32 406.04 238.3 405.09 237.9 404.27 237.72 403.66 237.51 402.2 236.54 401.48 236.27 400.79 235.99 400.15 235.19 399.91 234.27 400.15 233.82 400.58 233.53 401.81 232.05 402.21 231.43 400.41 233.04 399.43 233.6 398.32 233.6 398.32 233.82 399.09 234.78 399.47 235.4 399.53 235.78 399.06 235.83 395.95 234.61 394.8 234.31 393.41 233.94 392.47 234.28 393.48 234.38 393.95 234.57 385.36 234.75 384.82 234.94 384.12 235.45 383.46 235.51 382.86 235.32 382.29 235.06 381.76 233.5 381.59 232.7 381.83 232.16 381.48 231 381.21 228.18 380.6 227.08 380.68 226.68 380.57 225.9 380.36 225.03 380.11 224.37 379.92 224.15 379.31 223.75 379.03 223.52 378.74 223.16 378.71 223.12 378.64 222.92 378.61 222.68 378.42 222.19 378.28 222.2 378.23 222.15 378.21 221.78 378.32 221.64 378.7 221.29 378.74 221.12 378.81 220.96 378.84 220.79 378.75 220.57 379.09 220.39 380.02 219.6 380.27 219.31 380.45 218.78 380.76 217.07 381.24 216 381.87 215.28 385.13 213.1 386.11 211.73 386.5 210.52 387.28 208.86 387.46 208.23 387.45 207.87 387.34 207.54 387.32 207.25 387.56 207.04 388.69 206.86 389.07 206.65 389.53 206.68 389.98 206.79 390.42 206.84 390.86 206.65 391.32 206.55 391.59 206.41 391.96 206.02 392.31 205.29 392.62 205.02 393.23 205.06 395.24 205.72 396.14 205.63 396.43 204.77 396.76 204.33 397.07 203.26 397.73 202.18 398.21 201 398.49 200.47 398.85 199.46 398.74 199.4 398.26 199.12 397.27 199.19 396.34 199.41 396.24 199.41 396.05 199.36 395.62 199.83 394.75 200.14 393.86 200.29 393.32 200.28 392.84 199.92 392.49 199.67 391.06 196.79 390.88 196.63 390.27 196.27 390.03 196.07 389.87 195.85 389.64 195.38 389.49 195.18 385.74 191.38 384.74 190.8 384.25 190.61 384.76 190.18 385.1 189.79 385.14 189.38 384.73 188.91 385.08 188.5 385.72 186.71 387.21 185.02 387.4 184.53 387.29 184.26 387.08 184.13 386.85 184.03 386.67 183.81 386.62 183.52 386.6 183.16 386.67 182.35 386.92 181.14 387.03 180.89 387.34 180.42 387.4 180.28 388.98 179.27 389.49 178.94 390.02 178.78 390.61 178.39 391.09 177.95 391.29 177.61 391.63 177.38 393.27 177.1 393.84 176.88 394.27 176.53 394.71 176.25 395 176.11 394.96 175.6 395.14 175.05 394.65 174.36 395.41 173.86 396.2 173 397.39 171.2 397.74 170.84 397.94 170.48 397.88 170.16 397.47 169.91 397.72 169.3 397.5 168.61 397 167.97 396.43 167.54 395.61 167.1 394.69 166.91 393.75 166.99 392.9 167.39 392.47 167.52 391.93 167.45 391.41 167.24 391.05 166.95 391 166.65 391.39 165.96 391.46 165.6 391.03 164.92 390.2 164.62 389.21 164.42 388.33 164.04 387.84 163.48 387.56 162.77 387.62 162.03 388.09 161.38 386.33 159.7 385.67 159.29 385.41 158.87 385.24 158.12 385.22 157.33 385.4 156.83 385.68 156.32 385.87 155.51 385.87 154.75 385.61 154.4 384.12 154.09 383.37 153.81 382.83 153.47 382.49 152.69 382.18 152.39 380.98 151.9 380.39 151.46 379.33 150.37 378.7 149.92 377.55 147.46 377.28 146.96 377.23 146.87 384.88 147.15 385.36 147.05 385.95 146.85 386.61 146.74 388.02 146.78 388.63 146.63 389.4 147 390.5 147.04 395.72 146.53 396.24 146.37 396.65 145.6 396.61 145.34 396.5 145.1 396.52 144.77 396.68 144.44 397.1 143.86 397.24 143.52 397.18 143.22 397.03 142.9 396.98 142.52 397.24 142.04 397.51 141.86 398.32 141.6 398.66 141.44 399.55 140.41 399.67 140.07 399.7 139.48 399.76 139.16 399.77 138.98 399.64 138.63 399.64 138.43 399.74 138.27 400.09 138.06 400.2 137.93 400.4 137.05 400.54 136.73 400.48 136.35 400.64 135.97 401.25 135.19 399.83 133.21 399.04 132.45 398.56 131.87 398.18 131.6 397.8 131.49 396.86 131.39 396.43 131.29 396.01 130.81 395.75 129.6 395.46 129.08 395.76 128.67 396.11 127.85 396.43 127.52 397.07 127.3 398.6 126.53 399.04 126.47 399.28 126.44 399.97 126.49 400.66 126.46 401.31 126.11 401.42 125.9 401.44 125.62 401.46 125.31 401.59 125.04 401.81 124.84 403.34 123.98 403.66 123.73 404.28 122.88 403.08 122.02 402.26 120.99 402.05 119.84 402.71 118.59 403.54 117.69 403.64 117.27 403.44 116.65 403.07 116.17 402.67 115.85 402.36 115.49 402.29 114.87 402.5 114.32 403.32 113.17 403.57 112.57 403.58 112.14 403.5 111.5 403.22 110.31 402.77 109.16 402.69 108.65 402.69 107.97 402.76 107.62 402.86 107.42 402.89 107.22 402.77 106.85 402.73 106.62 402.78 105.72 403.36 105.58 403.51 105.13 403.33 104.66 402.94 104.46 402.41 104.35 402.12 104.05 401.82 103.31 401.06 101.87 400.56 101.23 399.45 100.34 399.1 99.93 399.03 99.49 399.41 99.02 399.55 98.36 399.56 98.35 400.29 98.07 402.47 98.21 403.44 98.14 403.93 97.77 405.33 96.19 405.62 95.55 405.53 94.67 405.67 94.42 406.13 93.98 407.38 93.16 407.58 92.88 407.85 92.35 409.11 90.91 409.52 90.57 410.15 90.48 412.47 90.46 412.79 90.28 414.87 89.6 416.03 88.92 417.17 88.03 418.28 86.67 418.42 86.64 418.86 86.7 419 86.67 419.09 86.47 419.13 86.2 419.11 85.98 419 85.97 419.46 85.69 419.95 85.54 421.06 85.48 421.06 85.18 422.42 83.54 422.43 83.31 422.34 83.07 422.31 82.79 422.54 82.43 423.45 81.7 425.15 79.83 424.78 79.48 424.29 78.96 422.79 77.78 421.2 77 419.47 76.52 416.6 76.08 416.11 76.06 415.86 76.22 415.63 76.44 415.14 76.69 414.61 76.9 414.24 76.97 413.25 76.69 412.76 76.12 412.57 75.43 412.48 74.77 412.32 74.44 412.08 74.13 411.97 73.82 412.18 73.49 412.44 73.19 412.59 72.86 413.45 69.96 413.86 69.3 412.94 69.07 412.31 69 412.03 68.75 412.32 67.22 412.18 66.63 411.7 66.2 410.84 65.93 410.36 66.69 409.16 66.97 406.63 67.05 405.57 66.81 404.28 65.31 403.2 65.17 402.97 66.23 402.13 66.62 399.93 66.75 398.93 66.6 398.07 66.1 397.58 65.91 397.26 65.79 396.43 66.24 395.17 66.65 394.05 66.27 392.98 65.57 391.83 65.04 391.32 65.1 390.7 65.36 390.16 65.67 389.9 65.88 389.82 66.38 390.05 67.53 389.97 68.09 389.57 68.53 389.24 68.88 388.07 69.43 385.55 70.08 384.91 70.16 383.63 70.13 383.09 70.2 382.61 70.44 381.76 71.17 381.29 71.48 381.14 70.91 380.8 70.3 380.34 69.82 379.85 69.69 379.51 69.67 378.97 69.38 378.7 69.38 378.43 69.55 378.36 69.77 378.32 70.01 378.14 70.26 377.6 70.55 376.88 70.74 376.12 70.83 375.5 70.78 374.93 70.54 374.9 70.21 375.45 69.09 373.54 69.03 372.92 68.8 371.94 68.27 371.39 68.17 370.39 68.55 368.19 68.95 367.23 68.91 366.86 69 366.69 69.2 366.57 69.43 366.32 69.63 365.2 69.63 364.96 68.61 364.86 67.65 364.16 67.85 363.99 68.26 363.82 68.85 363.49 69.31 362.83 69.32 362.26 69.25 361.75 69.43 361.32 69.77 360.97 70.2 359.81 71.11 359.74 71.12 358.21 71.45 355.16 71.31 355.17 71.24 355.31 70.39 355.25 69.92 354.98 69.64 353.71 69.27 353.31 68.64 353.37 67.98 353.7 67.34 355.07 65.82 356.1 65.06 357.13 64.56 357.7 64.21 358.08 63.76 358.16 63.14 357.87 62.62 357.33 62.22 356.65 62.01 355.91 62.06 355.28 62.28 354.74 62.39 354.29 62.13 354.17 61.55 354.28 60.03 353.96 59.49 353.64 59.15 352.58 59.72 351.93 59.91 351.32 59.93 351.05 59.98 350.74 60.13 349.83 60.75 349.23 60.99 343.76 61.65 343.09 61.84 341.87 62.47 341.22 62.67 339.92 62.69 339.3 62.79 338.7 63.12 338.39 63.48 338.01 64.24 337.74 64.6 337.02 64.96 336.1 65.17 335.3 65.48 334.91 65.7 334.51 66.28 333.97 66.82 333.32 67.23 332.59 67.39 332 67.65 331.43 68.16 330.87 68.53 330.28 68.38 330.37 67.89 329.66 60.99 329.77 60.37 330.16 60.13 331.57 60.11 332.22 59.97 332.48 59.64 332.32 59.36 331.64 59.12 331.49 58.89 331.67 58.77 332.59 58.41 332.68 58.26 332.77 57.92 332.96 57.59 333.33 57.44 333.49 57.34 334.15 56.71 336.01 55.65 336.48 55.5 336.64 55.43 337.77 54.63 338.41 54.44 339.13 54.07 339.36 53.89 339.48 53.6 339.48 52.51 339.45 52.27 339.31 52.24 339.02 52.31 338.48 52.69 338.1 53.36 337.6 53.99 336.72 54.27 336 54.4 334.09 55.06 333.69 55.37 333.31 55.44 331.45 55.34 330.77 55.5 330.9 55.06 331.27 54.27 331.27 53.79 331.49 53.79 331.99 54.34 332.2 54.07 332.22 52.93 332.15 52.64 332.07 52.48 332.19 52.39 332.7 52.31 333.98 52.53 334.15 52.44 334.41 51.98 335.75 50.81 336.36 50.4 337.53 49.83 338.04 49.46 338.29 48.94 337.97 49.06 337.68 49.05 337.33 48.94 337.02 48.97 336.9 49.01 336.82 49.06 336.04 49.42 335.16 49.94 334.66 50.16 333.89 50.31 332.77 50.39 331.62 50.28 330.77 49.89 330.48 49.49 330.32 48.82 330.04 48.44 329.58 48.25 328.36 48.09 328.1 47.95 328.37 47.61 329.02 47.3 329.76 47.08 330.28 46.99 330.71 47.1 331 47.4 330.99 47.73 330.52 47.95 330.84 48.11 331.33 48.26 331.85 48.32 332.22 48.22 332.36 47.85 332.27 47.43 332.27 47.04 332.7 46.77 332.27 45.54 332.22 44.93 332.35 44.4 332.67 43.98 333.1 43.7 333.57 43.6 334.03 43.15 335.33 40.98 335.61 40.18 335.39 40.18 335.14 40.75 334.8 41.3 334.32 41.72 333.69 41.88 333.03 41.69 332.59 41.24 332.23 40.69 331.76 40.4 331.22 41.14 331.14 41.58 331.49 41.88 330.72 42.7 330.31 42.9 329.8 42.61 329.99 42.23 329.49 42.42 328.32 43.09 328.83 43.54 328.41 43.79 327.14 44.06 327.03 44.24 326.75 45.05 326.45 45.13 326.17 45.33 325.66 45.78 325.13 45.34 325.06 44.69 324.89 44.1 324.09 43.84 323.56 43.46 323.74 42.6 324.25 41.69 324.69 41.15 324.67 40.73 324.78 40.2 325 39.5 325.4 39.07 325.57 38.82 325.85 38.57 326.26 38.46 326.35 38.39 327.38 37.95 328.29 37.02 328.83 36.65 329.68 36.5 329.92 36.25 330.15 35.7 330.05 35.12 329.32 34.83 329.17 35.64 328.62 36.14 327.8 36.4 326.87 36.5 325.07 36.3 324.33 36.41 324.45 37.01 323.63 37.66 323.19 37.83 322.51 37.73 322.05 37.43 321.81 36.97 321.62 36.41 321.28 35.77 321.72 35.78 322.05 35.65 322.3 35.4 322.51 35.05 322.23 34.64 321.73 34.39 321.06 34.19 321.02 33.91 320.84 33.44 320.8 33.23 320.87 33.09 321.19 32.82 321.28 32.6 321.33 32.28 321.3 32.06 321.05 31.92 320.44 31.88 320.12 31.73 319.56 31.08 319.12 30.93 319.12 31.15 319.33 31.53 319.13 31.74 318.79 31.8 318.62 31.77 318.47 31.3 318.12 31.26 317.71 31.44 317.41 31.66 317.14 31.96 316.79 32.68 316.55 32.99 316.39 32.92 316.04 32.09 315.71 31.88 315.71 31.66 315.95 31.32 316.68 29.83 316.71 29.61 316.78 29.33 316.9 29.05 317.03 28.85 317.17 28.54 316.94 28.31 316.42 28.03 316.16 27.19 316.46 26.99 316.92 26.98 317.17 26.66 317.36 26.01 317.77 25.71 318.19 25.49 318.35 25.08 318.87 25.41 319.34 25.51 319.8 25.39 320.31 25.08 320.51 24.89 320.6 24.71 320.74 24.54 321.06 24.35 321.35 24.24 321.61 24.19 322.25 24.13 322.25 23.87 321.65 24.08 320.85 24.22 320.28 24.18 320.31 23.87 319.18 24.29 318.68 24.25 318.35 23.63 320.04 22.44 321.18 21.99 322.51 22.42 323.12 22.41 323.76 22.32 324.21 22.17 324.66 21.88 325.11 21.68 325.47 21.2 325.66 20.67 325.92 20.67 326.57 21.09 327.52 21.07 328.46 20.79 329.07 20.45 328.32 20.48 327.91 20.27 327.38 19.48 327.22 19.49 326.78 19.32 326.49 19.1 326.75 19 327.1 18.97 328.53 18.51 330.04 17.76 331.15 17.54 331.42 17.29 331.7 17.12 332.1 17.04 332.56 17.23 333.67 18.06 334.28 18.25 334.92 18.32 336.29 18.65 336.95 18.73 337.93 18.46 339.19 17.93 340.52 17.64 341.73 18.03 343.59 17.38 343.89 17.16 344 16.84 344.29 16.57 344.65 16.38 345.37 16.25 345.52 16.11 345.61 15.95 345.82 15.83 347.76 15.45 347.89 15.92 348.21 16.26 348.99 16.77 349.44 16.37 349.57 16.05 349.48 15.21 349.8 14.75 350.51 14.84 351.54 15.32 352.05 15.45 352.28 15.77 352.41 16.17 352.64 16.55 353.46 17.15 353.82 17.49 354.08 18.03 354.35 17.46 354.33 16.91 354.08 15.83 354.1 15.28 354.27 14.96 354.65 14.71 355.31 14.37 354.61 14.13 353.97 14.07 352.76 14.13 352.14 13.98 351.29 13.31 350.71 13.14 351.37 12.75 354.95 12.42 355.19 12.35 355.45 12.19 355.61 11.95 355.55 11.69 355.38 11.66 354.56 11.93 352.4 12.2 352.53 12.07 352.63 12.01 352.89 11.93 352.75 11.84 352.4 11.69 351.98 12.15 351.28 12.36 349.72 12.42 349.99 11.87 350.12 11.13 350.3 10.59 350.71 10.72 351.17 10.24 350.88 10.05 350.6 9.76 350.42 9.41 350.44 9.03 350.58 9.03 351.2 9.11 351.43 9.03 352.27 9.12 353.29 8.73 358.46 5.86 358.59 6.25 358.88 6.45 359.28 6.48 359.69 6.34 359.32 6.36 359.2 6.34 359.2 6.12 359.36 6.05 359.53 5.94 359.69 5.86 359.01 5.45 358.91 5.07 359.08 4.69 359.2 4.28 359.43 3.98 359.95 3.88 361.14 3.9 362.2 3.68 363.2 3.25 364.08 2.65 364.77 1.96 365.75 2.07 366.17 2.58 366.44 3.21 366.97 3.68 366.97 3.9 366.77 3.81 366.41 3.74 366.22 3.68 365.97 3.98 365.81 4.3 365.79 4.6 366 4.86 365.64 5.07 365.52 5.03 365.26 4.86 365.03 5.03 364.94 5.08 364.77 5.13 364.77 5.37 366.55 5.44 366.87 5.18 366.22 4.4 366.63 4.19 367.07 4.18 367.94 4.4 367.86 4.29 367.77 4.03 367.7 3.9 368.19 3.49 368.84 3.1 369.55 2.8 370.96 2.54 371.71 2.16 372.32 1.66 372.56 1.12 372.68 1 372.93 1.11 373.18 1.38 373.29 1.74 373.14 1.95 372.32 2.69 372.3 3.2 372.47 3.35 372.73 3.3 373.05 3.19 373.1 3.1 373.08 2.92 373.14 2.76 373.42 2.69 373.65 2.66 374.26 2.45 374.38 2.93 375.25 4.16 375.15 4.72 375.46 4.63 375.9 4.18 376.19 3.68 376.62 3.8 376.94 3.61 377.28 3.33 377.79 3.19 379.19 3.31 379.61 3.42 382.53 4.62 383.97 5.02 386.2 7.91 387.88 8.51 387.76 8.66 387.69 8.77 387.59 8.87 387.38 8.97 387.38 9.24 387.85 9.4 388.14 9.3 388.41 9.11 388.83 8.97 389.35 8.97 390.08 9.15 391.42 9.3 393.59 9.24 394.18 8.97 394.8 9.22 395.42 9.3 395.84 9.53 395.89 10.23 395.65 10.62 395.27 11.04 395.09 11.53 395.41 12.14 395.43 12.14 395.63 12.14 395.83 11.57 395.94 10.97 396.15 10.49 396.62 10.23 396.94 9.4 398.98 9.07 402.45 8.97 402.99 9.1 405.11 8.97 406.58 9.29 407.49 9.36 409.45 8.6 411.25 8.74 413.07 9.21 414.36 9.72 414.73 9.52 415.13 9.45 416.03 9.46 415.97 9.29 415.88 8.89 415.81 8.73 416.3 8.8 417.14 9.16 417.64 9.24 419.47 8.97 421.29 8.97 421.81 8.9 422.74 8.58 423.58 8.42 423.8 8.24 424.07 8.06 424.55 8.01 425.68 8.62 426.13 8.73 428.89 8.95 429.44 8.73 430 8.93 430.53 8.76 431.06 8.46 431.61 8.27 435.73 8.27 435.92 7.95 435.68 7.68 435.53 7.4 435.97 7.04 435.9 6.92 435.8 6.66 435.73 6.55 436.88 6.56 437.29 6.39 437.45 5.96 437.69 5.63 438.25 5.65 439.4 6.07 440.17 6.55 442.11 8.23 442.77 8.97 443.02 8.97 443.2 8.47 443.47 8.62 443.88 9.24 445.72 9.46 452.87 9.24 453.94 9.45 454.05 9.94 453.6 10.5 452.99 10.93 453.23 11.17 453.59 11.01 454.34 10.82 454.7 10.69 454.96 10.46 455.06 10.22 455.26 10.04 455.78 9.96 457.27 10.07 457.84 10.22 460.39 11.46 461.6 11.78 464.66 11.89 465.51 12.07 465.89 12.52 466.31 12.32 468.79 12.87 469.07 12.79 469.59 12.47 470 12.41 470.38 12.49 471.18 12.8 473.7 13.19 476.6 14.18 477.31 14.35 485.2 14.85 485.35 14.86 486.29 15.53 487.03 15 488.03 14.86 489.01 15.06 489.7 15.53 489.92 15.53 490.29 15.09 490.62 14.96 492.28 15.1 496.68 14.76 497.66 14.2 499.9 13.69 500.75 13.59 502.33 13.59 502.54 13.5 502.57 13.33 502.63 13.16 502.92 13.09 503.17 13.15 504.03 13.59 504.2 13.43 504.36 13.39 504.53 13.38 504.75 13.35 504.59 13.29 504.27 13.09 504.27 12.87 505.49 12.22 506.11 12.02 506.69 12.14 507.13 11.94 507.24 11.98 507.42 12.14 508.45 11.68 509.51 11.51 510.57 11.66 511.55 12.14 510.01 12.65 509.36 12.97 508.89 13.35 509.26 13.68 509.42 13.78 509.61 13.86 509.49 13.89 509.4 13.88 509.34 13.92 509.35 14.08 509.74 14.09 510.06 14.05 510.58 13.86 510.83 13.68 511.3 13.19 511.44 13.09 511.75 13.17 512.09 13.52 512.41 13.59 512.56 13.45 512.48 13.13 512.27 12.8 512.04 12.63 512.04 12.41 512.53 12.46 512.74 12.51 512.98 12.63 513.04 12.45 513.09 12.45 513.25 12.41 512.98 12.14 513.37 12.02 514.42 11.96 514.82 11.78 515.17 11.52 515.56 11.38 518.28 10.76 519.17 10.81 519.1 11.42 519.71 11.44 520.19 11.7 520.58 12 520.91 12.14 523.34 12.45 523.53 12.58 523.64 12.76 523.68 12.98 523.63 13.29 523.49 13.34 523.27 13.3 522.98 13.35 522.83 13.26 522.49 13.1 522.16 13.03 522.01 13.22 521.89 13.42 521.6 13.62 521.04 13.86 521.74 13.96 522.15 14.36 522.48 14.51 522.98 13.86 523.36 14.28 523.86 14.31 524.91 14.08 525.42 14.15 527.12 14.58 529.29 14.81 530.9 15.25 531.36 15.31 531.74 15.46 532.55 16.15 533.48 16.36 534.16 16.52 534.84 16.58 535.65 16.13 536.78 16.64 538.54 17.76 538.54 17.49 538.12 16.63 538 16.19 537.79 15.94 537.79 15.8 537.97 15.63 538.44 15.51 538.85 15.15 540.39 14.46 540.96 14.35 540.96 14.08 540.72 14.08 540.72 13.86 541.31 13.61 542.19 13.54 544 13.59 545.67 13.47 546.42 13.25 547.03 13.09 547.49 13.17 548.23 13.58 548.93 14.08 549.23 14.47 549.65 15.36 549.78 16.1 549.93 15.96 550.2 15.31 550.23 15.14 550.22 14.93 550.25 14.73 550.42 14.58 550.84 14.53 551.26 14.61 551.66 14.74 552.77 14.88 554.82 15.53 556.34 15.76 557.14 15.99 557.82 16.75 561.26 17.94 562.69 18.26 564.19 18.37 565.74 18.24 566.92 18 567.33 17.97 567.54 18.09 567.78 18.34 568.1 18.59 568.54 18.7 568.63 18.66 568.74 18.58 568.91 18.5 569.15 18.46 569.32 18.54 569.4 18.7 569.51 18.87 569.76 18.94 570.78 18.35 571.22 18.24 571.96 18.16 574.48 17.49 575.29 17.11 575.69 16.97 576.22 16.99 576.64 17.23 576.89 17.58 577.17 17.75 577.67 17.49 577.47 17.39 577.17 17.13 576.92 16.99 578.37 16.51 579.7 15.63 580.98 15.13 581.59 15.45 Z M 715.54 48.95 714.73 48.86 714.27 48.59 714.2 48.15 714.59 47.51 714.99 47.37 715.36 47.75 715.72 48.35 716.11 48.85 715.99 48.89 715.64 48.95 715.54 48.95 Z M 9.27 566.28 9.98 566.37 10.6 566.7 11.04 567.15 11.21 567.61 11 568.2 9.54 570.15 9.5 570.38 9.52 570.59 9.52 570.81 9.41 571.01 9.23 571.12 9.03 571.19 8.88 571.29 8.81 571.51 8.69 571.69 8.43 571.88 8.16 572.13 8.04 572.46 7.95 573.29 7.66 573.71 7.14 573.72 6.37 573.32 5.84 572.81 5.52 572.33 5.05 571.98 2.43 571.66 1.73 571.37 1.24 570.88 1 569.63 1.95 569.23 3.46 569.35 4.92 569.67 5.44 569.36 6.81 568.17 7.09 567.84 7.14 567.46 7.29 567.28 8.04 566.98 9.27 566.28 Z M 99.42 559.96 99.71 560.17 100.27 560.47 100.41 560.69 100.32 561.26 100.04 561.9 99.95 562.54 100.41 563.11 100.41 563.35 100.03 563.52 99.77 563.83 99.42 564.58 99.74 565.09 99.98 565.73 99.91 566.27 99.31 566.5 98.88 566.77 97.74 568.03 97.24 568.44 94.75 569.13 94.34 569.32 94.17 569.34 93.24 570.27 92.82 570.45 92.45 570.29 92.11 570.03 91.78 569.89 90.24 569.79 89.57 569.64 88.99 569.43 87.08 567.97 86.79 567.61 86.65 567.37 85.91 566.99 85.58 566.76 85.44 566.56 84.41 564.53 84.19 563.81 84.37 563.11 84.23 562.7 84.17 562.16 84.21 561.6 84.37 561.17 84.69 560.86 86.09 560.18 86.72 559.76 87.59 559.02 88.19 558.13 88 557.28 88.41 556.95 88.55 556.32 88.49 555.61 88.27 555.1 88.66 555.07 89.04 555.09 89.39 555.17 89.72 555.34 90.23 555.22 92.14 555.8 94.82 555.8 97.04 556.27 97.88 556.04 97.75 554.83 98.8 554.66 98.94 554.72 99.13 555.18 99.12 555.46 98.82 555.58 98.57 556.02 98.6 556.97 98.82 558.38 98.9 558.62 98.99 559.04 99.14 559.52 99.42 559.96 Z M 31.41 553.69 33.2 553.31 34.85 553.75 36.35 554.61 38.27 555.85 38.69 556.67 38.9 557.46 38.35 558.16 37.65 558.56 36.6 559.44 35.83 559.91 35.05 560.09 34.14 560.36 33.25 560.16 31.39 559.14 30.22 557.57 30.21 556.3 30.38 554.97 31.41 553.69 Z M 62.68 555.73 62.21 556.33 61.65 556.94 59.36 558.99 58.83 559.74 58.5 560.18 57.29 559.96 55.35 560.62 54.54 560.9 53.87 561.14 53.29 561.04 52.9 560.55 52.82 560.22 52.88 559.79 52.56 559.68 52.28 559.46 52.17 559.17 52.11 558.5 52.04 558.25 51.55 557.71 50.17 556.5 49.88 555.93 49.64 555.17 49.11 554.58 48.53 554.09 48.16 553.62 47.92 552.06 47.81 551.72 47.31 551.04 46.88 550.21 45.7 549.15 45.37 548.45 46.22 547.96 48.15 547.17 48.85 547.43 49.69 547.94 50.1 548.05 50.54 548.05 51.55 547.79 52.33 547.44 53.48 547.11 54.3 546.82 55 546.98 56.42 546.86 57.12 546.81 57.83 546.31 58.74 546.22 59.12 546.07 59.87 545.99 60.58 545.49 62.25 544.18 62.94 543.64 63.16 543.33 63.24 542.82 63.37 542.6 64.04 542.28 64.33 542.09 64.97 541.78 65.76 541.65 66.41 541.41 66.63 540.75 67.21 540.94 70.66 541.03 72.84 540.34 73.67 540.75 73.34 541.75 72.27 542.44 69.64 543.71 69.05 544.68 68.32 545.31 67.35 546.22 66.36 546.94 65.74 547.16 65.24 547.52 64.88 548.18 64.87 548.93 65.06 549.52 65.15 549.88 65.04 550.24 64.69 550.5 64.37 550.81 64.13 551.64 62.98 553.54 62.67 555.09 62.68 555.73 Z M 149.74 534.94 151.06 534.46 152.36 534.3 153.57 534.64 154.6 535.66 155 536.86 155.11 538.46 154.84 541.47 154.61 542.21 153.98 543.56 153.86 544.05 153.81 545.24 153.86 545.61 153.96 545.84 154.29 546.34 154.34 546.6 154.17 546.94 153.53 547.46 153.39 547.67 153.38 547.99 153.31 548.34 153.2 548.66 152.6 549.4 152.31 550 151.92 551.2 151.12 552.37 149.95 552.95 146.2 553.49 144.57 553.92 143.38 554.65 141.97 554.98 141.24 555.34 140.1 556.45 139.15 557.62 138.08 558.63 136.6 559.24 135.68 559.23 134.29 558.66 133.57 558.51 131.22 558.63 130.79 558.51 130.92 558.38 131.07 557.96 131.17 557.54 131.15 557.4 131.4 557.33 132.62 557.52 133.31 557.47 134.62 557.09 136.67 556.26 139.19 554.79 140.25 553.89 140.81 553.28 141.2 552.7 141.42 552.01 141.61 550.26 141.92 549.62 142.7 548.54 143.58 546.02 143.77 545.61 144.23 545.3 145.28 543.78 146.09 542.02 147.49 540.2 147.9 538.44 148.41 537.37 148.58 536.08 148.77 535.62 149.14 535.26 149.74 534.94 Z M 15.59 532.01 15.52 532.71 15.77 533.56 16.1 534.16 16.79 534.47 16.82 535.12 15.76 536.21 15.25 537.01 15.53 537.71 15.95 538.98 15.66 539.65 15.45 540.58 14.61 541.58 13.9 542.97 13.25 544.16 12.93 544.89 12.71 544.89 12.5 544.54 11.71 544.18 11.46 543.5 11.2 541.75 10.79 541.33 10.53 540.76 9.79 539.89 9.6 539.11 8.24 537.22 8.09 536.33 7.94 535.77 7.78 535.21 7.2 534.84 6.85 534.45 7.04 533.37 7.97 532.2 9.19 531.24 10.08 530.69 10.81 531.11 11.69 531.22 12.54 531.41 13.97 530.92 14.68 531.17 15.26 531.62 15.59 532.01 Z M 167.1 517.07 167.73 516.95 168.39 517.31 169.41 518.16 169.07 518.88 168.93 519.46 168.67 519.94 167.96 520.35 167.83 520.89 167.95 521.37 168.13 521.88 168.21 522.52 168.14 522.77 167.84 523.24 167.72 523.52 167.7 523.81 167.75 524.43 167.72 524.73 167.14 525.59 166.13 526.37 164.97 526.93 163.31 527.3 162.96 527.63 162.68 527.96 162.25 528.11 161.69 528.15 160.88 528.32 160.32 528.36 159.08 528.6 158.13 529.24 157.38 530.17 156.76 531.26 156.54 531.26 156.16 530.77 155.43 530.57 153.74 530.56 153.47 530.36 153.25 529.94 153.15 529.52 153.27 529.32 153.67 529.21 153.97 528.94 154.34 528.36 154.47 527.78 154.62 526.03 154.72 525.56 155.91 523.87 156.54 523.27 157.04 522.95 157.61 522.71 158.29 522.57 159.09 522.52 159.76 522.35 160.95 521.46 161.65 521.07 162.31 520.88 162.87 520.81 164.68 520.81 165.18 520.67 165.57 520.24 166 519.38 166.39 518.19 166.66 517.59 167.1 517.07 Z M 166.97 515.48 167.28 516.13 166.78 516.97 165.89 517.55 165.04 517.44 165.04 517.18 165.59 516.67 165.86 515.88 166.21 515.31 166.97 515.48 Z M 619.22 215.38 618.9 216.17 618.96 216.99 619.45 218.31 618.72 217.65 618.57 216.6 618.6 215.44 618.45 214.43 618.63 214.42 618.68 214.48 618.68 214.57 618.72 214.65 618.84 214.8 619.05 215.17 619.22 215.38 Z M 699.33 182.4 700.73 181.91 701.32 182.5 701.28 183.28 700.44 183.43 699.23 183.41 697.48 182.51 696.91 182.27 696.22 182.67 695.88 182.86 695.3 183.51 694.74 183.79 694.25 183.67 694.41 182.95 694.26 182.68 694.27 182.31 694.45 182.07 694.61 181.74 694.63 181.46 694.37 181.34 694.24 181.2 694.45 180.94 694.89 180.54 695.14 180.74 695.49 180.62 695.84 180.22 695.96 179.67 696.11 179.65 696.15 179.7 696.15 179.78 696.18 179.87 697.9 181.81 699.33 182.4 Z M 702.15 167.74 701.97 168.05 702.19 168.76 702.76 169.94 702.17 169.97 701.7 170.26 701.4 170.71 701.28 171.26 701.1 171.48 699.86 172.12 698.74 173.45 698.3 173.75 697.32 174.16 696.93 174.52 696.8 174.38 696.57 174.21 696.45 174.05 695.86 174.64 695.37 174.85 695 176.05 694.96 176.92 693.81 176.94 693.46 176.23 692.85 175.86 692.33 176.01 692.09 176.01 691.97 175.97 691.93 175.94 691.58 176.01 691.32 175.57 690.72 175.42 690.12 175.57 689.88 176.01 688.76 175.42 688.35 175.05 688.19 174.41 688.62 173.55 688.74 173.03 688.41 172.6 688.71 172.39 689.07 172.21 689.47 172.17 689.88 172.36 690.14 172.18 690.48 172.11 691.34 172.12 691.03 170.62 691.05 169.8 691.46 169.43 691.93 169.29 692.46 168.95 693.32 168.22 693.54 168.22 693.87 168.44 694.57 168.02 694.97 168.22 695.67 167.76 696.65 167.37 697.64 167.15 698.38 167.26 698.7 166.92 699.2 166.76 699.71 166.79 700.3 167.16 700.54 167.22 701.18 167.26 701.58 167.33 701.87 167.5 702.15 167.74 Z M 764.16 143.16 765.17 143.39 767.18 144.31 768.41 144.39 768.2 144.76 768.23 145.05 768.35 145.32 768.41 145.6 768.27 145.79 768.05 145.93 767.95 146.15 768.17 146.59 767.68 147.58 767.3 148.08 766.83 148.29 766.24 148.46 765.84 148.87 765.72 149.42 765.98 149.98 764.54 151.01 763.05 152.4 761.93 154.1 761.6 156.08 761.26 155.91 761.12 155.81 760.54 157.28 759.43 158.21 756.18 159.78 754.81 160.69 754.54 161.04 754.39 161.16 754.07 161.34 753.74 161.43 753.6 161.3 752.63 160.17 752.4 160.05 751.85 159.85 751.63 159.71 751.47 159.38 751.4 158.99 751.28 158.66 751.03 158.52 750.68 158.44 750.13 158.09 749.82 158.01 749.39 158.05 748.83 158.22 748.49 158.26 745.4 158.08 744.02 157.64 743.14 156.78 742.77 154.85 742.25 154.59 742.35 154.01 742.9 153.15 742.49 152.42 741.48 151.7 740.3 151.16 739.36 150.95 738.59 151.14 736.31 152.13 735.83 152.53 735.45 153.49 734.57 154.21 733.6 154.3 732.93 153.39 732.85 153.32 732.76 153.04 732.87 152.81 733.17 152.67 732.22 151.92 731.94 152.22 731.66 152.35 731.42 152.26 731.23 151.92 730.25 152.36 730.02 152.4 729.68 152.21 729.38 151.57 728.74 151.16 728.57 150.53 728.6 149.81 728.81 149.28 731.35 148.04 732.1 147.91 732.73 147.59 734.48 146.15 735.01 145.93 735.72 145.84 736.33 145.69 736.93 145.31 738.03 144.39 738.18 144.22 738.43 143.78 738.52 143.67 738.68 143.63 739.09 143.7 739.24 143.67 740.1 142.99 740.21 142.82 740.37 142.74 741.09 142.11 741.33 141.95 741.59 141.89 742.63 141.49 743.14 141.17 743.54 140.85 743.96 140.6 744.48 140.49 744.61 140.42 744.83 140.11 744.96 140.03 745.71 140.08 746.04 140.03 747.09 139.65 749.22 138.55 750.31 138.32 752.31 138.17 754.27 137.78 757.95 136.62 758.44 137.11 758.62 136.96 758.73 136.92 759.18 137.11 758.81 137.32 757.56 137.77 757.1 137.85 756.58 138.07 756.11 138.47 755.68 138.75 755.29 138.58 755.02 138.58 754.95 139.73 756.2 139.9 758.92 139.31 758.92 139.53 758.57 139.73 758.52 139.96 758.55 140.23 758.44 140.49 758.22 140.68 758.02 140.78 757.45 140.98 756.32 141.2 756.07 141.48 756.01 142.21 756.43 143.01 757.35 143.7 758.5 144.2 759.53 144.39 761.96 144.39 762.58 144.2 763.66 143.35 764.16 143.16 Z M 797.79 138.16 797.94 138.69 798.71 139.65 799 140.23 798.76 140.23 798.62 140 798.39 139.8 798.1 139.62 797.79 139.5 797.69 141.84 795.85 142.02 793.33 141.07 787.58 138.15 786.39 137.78 784.97 137.76 782.41 138.16 781.04 137.78 781.19 137.36 781.22 136.85 781.34 136.38 781.75 136.09 781.46 135.89 780.74 135.69 780.41 135.47 780.08 135.05 780.07 134.87 780.21 134.69 780.29 134.26 780.73 133.83 783.2 133.4 784.05 133.67 787.47 133.4 788.89 133.45 789.3 133.4 789.8 133.24 790.39 132.86 790.77 132.7 790.87 133.12 791.19 133.4 791.98 133.89 791.9 133.99 791.83 134.25 791.85 134.51 792.09 134.64 792.31 134.53 792.58 134.29 792.93 133.89 792.86 133.37 793.09 133.22 793.31 133.41 793.17 133.89 793.38 134.14 794.38 134.64 794.58 134.9 794.74 135.07 795.1 135.34 795.3 135.42 795.82 135.5 796.07 135.6 796.44 136 796.74 136.58 796.71 137.1 796.07 137.3 796.63 137.51 797.18 137.48 797.61 137.57 797.79 138.16 Z M 751.07 165.08 750.96 166.04 750.25 166.86 749.14 166.78 748.52 165.59 749.47 164.88 750.9 164.39 751.07 165.08 Z M 492.73 306.69 492.78 306.69 492.84 306.71 492.81 306.73 492.75 306.73 492.7 306.71 492.66 306.69 492.69 306.68 492.73 306.69 Z M 506.81 305.18 506.83 305.16 506.84 305.17 506.82 305.2 506.8 305.19 506.81 305.18 Z M 506.89 305.09 506.92 305.09 506.92 305.11 506.9 305.11 506.88 305.11 506.87 305.11 506.87 305.1 506.89 305.09 Z M 558.89 306.25 559.06 306.22 559.16 306.36 558.99 306.48 558.83 306.39 558.89 306.25 Z M 453.06 280.35 453.16 280.42 453.09 280.51 453.01 280.49 452.99 280.39 453.06 280.35 Z" fill-rule="evenodd"/>
</g>
</svg>