<?xml version="1.0"?>
<svg xmlns="http://www.w3.org/2000/svg" version="1.2" baseProfile="tiny" width="800" height="550" viewBox="0 0 800 550" stroke-linecap="round" stroke-linejoin="round">
<g id="selection">
<path d="M 176.94 353.66 177.13 354.05 177.33 354.58 177.36 355.05 177.02 355.25 176.75 355.46 175.87 356.83 175.55 357.65 175.29 357.83 174.69 358.24 174.22 358.03 173.75 357.71 173.65 357.25 174.19 357.07 174.56 356.22 175.22 355.44 175.61 355.25 176.17 355.09 176.54 354.7 176.77 354.18 176.94 353.66 Z M 225.17 336.25 225.09 336.75 225.53 337.15 225.92 337.67 225.27 338.06 225 338.2 224.7 338.25 224.49 338.34 224.39 338.57 224.19 339.25 224.13 339.85 224.05 339.97 223.91 340.03 223.7 340.19 223.44 340.7 223.13 341.98 222.67 342.91 222.36 344.15 221.85 345.75 220.97 348.18 220 350.94 219.71 351.67 219.78 352.14 219.72 352.43 219.93 353.09 220.24 353.52 220.97 353.75 220.88 353.99 220.51 354.41 220.43 354.62 219.79 357.48 219.91 358.25 219.09 358.83 218.79 359.15 218.67 359.57 218.6 359.61 218.25 360.11 218.14 360.36 218.11 360.67 218.18 360.83 218.27 360.93 218.32 361.05 218.33 361.59 218.21 361.73 217.88 362.02 217.81 362.2 217.56 363.43 217.43 363.66 217.09 364.06 217 364.29 216.96 364.48 216.9 364.63 216.73 364.76 216.63 364.67 216.56 364.63 216.39 364.57 216.5 364.41 216.53 364.34 216.56 364.24 215.53 364.39 215.04 364.42 214.63 364.24 214.51 364.05 214.53 363.62 214.46 363.36 214.34 363.2 213.85 362.74 213.68 362.52 213.55 362.49 213.36 362.46 212.8 362.58 212.36 362.29 212.08 362.1 211.56 362.15 211.02 362.27 210.06 362.66 209.67 362.91 209.37 363.23 208.93 363.89 208.56 364.88 208.86 365.11 209.74 365.35 210.35 365.51 210.88 365.76 210.97 366.06 210.89 366.26 210.34 366.58 210.12 366.96 210.59 367.12 211.42 366.8 211.61 367.03 209.76 368.42 209.06 368.36 208.42 368.53 208.38 369.08 208.14 369.42 207.7 370.2 207.4 370.57 207.09 370.84 206.69 371.09 206.26 371.31 205.83 371.46 204.89 371.74 204.23 371.9 203.57 371.97 202.87 372.21 202.4 372.53 202.24 372.76 201.15 373 200.37 373.73 199.93 374.08 199.41 374.13 199.56 372.43 200.22 371.9 201.24 371.34 201.6 371.1 202.16 369.42 201.89 368.97 202.57 367.98 202.8 367.14 202.98 365.85 202.95 365.36 202.63 364.63 202.29 363.87 201.72 363.02 200.59 362.41 200.31 361.73 200.64 360.62 200.39 360.18 198.88 359.94 198.43 359.71 198.17 359.66 197.89 359.47 197.69 359.15 198.29 358.48 198.9 358.21 199.53 358.33 200.19 358.29 200.8 358.42 201.07 358.86 200.99 359.54 201.08 359.73 201.43 359.83 201.76 359.83 202.01 359.72 202.46 359.31 203.04 358.49 203.33 357.48 203.19 356.55 202.46 355.96 201.48 356 200.14 355.56 199.08 355.84 198.26 356.67 198.19 356.93 198.09 357.59 197.99 357.81 197.29 358.5 197.1 358.77 196.86 359.66 196.44 360.29 196.11 361.02 195.82 362.07 195.77 362.56 195.89 363.1 196.66 364.57 196.97 365.62 197.25 366.13 197.65 366.34 198 366.45 198.54 367.13 199.48 367.24 199.52 367.57 199.22 368.46 199.13 368.89 198.95 369.42 198.53 369.62 198.02 369.78 197.58 370.22 197.25 369.91 196.97 369.92 196.66 370.04 196.3 370.04 195.92 369.88 195.79 369.7 195.77 369.34 195.53 368.74 195.23 368.37 194.1 367.8 190.15 367.69 189.58 367.71 188.9 367.94 188.22 367.88 187.96 367.51 187.87 367.03 187.73 366.66 187.47 366.11 187.12 365.79 187.41 365.81 187.82 365.86 187.85 365.56 187.56 365.11 186.88 364.52 186.12 363.99 185.57 363.71 186.24 363.42 186.44 363.36 186.68 363.37 187.02 363.49 187.24 363.52 187.54 363.62 188.04 364.16 188.38 364.41 188.8 363.81 190.05 362.78 190.34 361.96 190.66 361.54 190.95 360.61 191.1 359.76 190.85 359.13 191.19 358.59 191.15 358.12 190.87 357.71 190.15 356.99 189.17 355.68 188.84 355.46 187.64 354.84 187.24 354.71 187.18 354.47 186.91 353.9 187.16 352.96 187.4 352.75 188.23 353.02 188.55 353.15 187.85 352.53 187.57 352.15 188.03 351.45 188.17 350.32 188.01 349.79 187.78 349.24 187.5 349 187.39 348.87 186.98 348.54 186.95 348.06 187.3 347.82 187.75 347.27 187.75 346.64 187.13 346.11 187.82 345.41 188.89 345.07 189.67 345.93 190.18 345.79 190.72 345.47 191.04 345.2 191.12 345.03 191.37 344.35 191.37 344.33 191.46 344.23 191.68 344.16 191.73 344.07 191.7 343.7 191.73 343.61 193.59 341.9 193.85 341.25 193.92 341.11 194.25 340.93 194.37 340.8 194.43 340.56 194.34 340.33 194.37 340.1 194.58 339.59 194.77 339.54 195.44 340.1 195.68 339.82 195.72 339.51 195.62 338.78 195.74 338.59 196.4 337.82 196.95 337.53 197.19 336.89 197.1 336.23 196.66 335.87 196.87 335.61 197.16 335.51 197.9 335.52 197.69 335.18 197.1 334.78 197.02 334.47 197.16 334.26 198.99 332.9 199.38 332.48 199.68 331.84 198.99 331.85 194.79 332.52 194.37 332.7 194.02 332.54 194.26 332.18 194.72 331.88 196.49 331.12 197.04 330.69 197.33 330.56 197.72 330.59 198.14 330.46 198.35 330.42 198.6 330.41 198.6 330.22 198.25 330.1 197.97 329.85 197.79 329.54 197.72 329.27 197.77 329.09 197.88 328.9 198.17 328.57 198.26 328.43 198.22 328.32 198.13 328.21 198.07 328.04 197.75 327.54 195.77 326.19 194.59 325.13 193.85 324.77 193.64 324.31 193.47 322.62 193.52 321.51 193.34 321.01 193.36 320.68 193.32 320.56 193.18 320.45 193.04 320.43 192.9 320.42 192.79 320.36 192.26 320.03 192.08 319.85 191.95 319.56 191.97 319.34 191.88 319.2 191.18 319.12 190.6 318.99 190.23 318.96 189.97 318.96 189.14 318.22 188.71 317.97 188.14 318.71 187.09 319.34 186.39 319.93 185.79 319.7 185.9 320.19 186.24 320.63 186.63 321.42 187.75 323.02 188.22 323.44 188.14 323.96 187.76 324.07 187.75 324.63 187.35 324.98 186.71 325.14 186.34 325.47 185.97 325.66 185.47 325.88 185.21 326 185.65 326.18 185.91 326.51 186.46 326.86 187.09 326.86 187.52 326.79 188.77 326.01 190.41 325.99 191.23 326.49 191.54 327.08 192.08 328.12 192.14 328.46 192.17 329.29 192.11 329.52 191.63 330.08 191.53 330.41 191.78 330.83 191.29 331.36 190.36 331.77 189.4 331.79 189.17 331.96 189.19 332.25 189.03 332.45 188.59 332.51 188.46 332.83 188.24 332.94 187.61 333.01 187.17 333.29 186.77 333.27 186.96 332.99 186.87 332.6 186.5 332.43 186.29 332.21 185.83 332.03 185.82 331.51 185.8 330.93 186.16 330.98 186.45 330.87 186.8 330.57 187.07 330.38 187.39 330.16 187.68 329.89 187.91 329.66 187.84 329.18 187.54 329.04 187.31 328.92 187.21 328.74 187.29 328.61 187.4 328.37 187.09 328.13 186.31 328.07 186.06 328.23 185.75 328.23 184.92 328.08 184.16 328.34 183.79 328.66 183.34 328.99 182.72 329.11 182.27 329.31 181.75 329.37 181.55 329.16 181.53 328.93 181.44 328.85 181.21 329.04 181.35 329.36 181.02 329.78 180.37 330.56 180.03 331 179.81 331.48 179.28 331.83 178.79 332.06 178.43 332.08 178.34 332.27 178.2 332.68 177.59 333.15 177 333.52 176.93 333.77 176.76 333.69 176.42 333.6 176.07 333.79 175.83 333.9 175.67 333.58 176.07 333.3 176.38 333.19 176.73 333.07 176.93 332.9 177.22 332.26 177.49 331.86 177.74 331.48 177.83 331.1 177.72 330.95 177.45 331.08 177.29 330.92 177.29 330.72 177.6 330.67 177.76 330.47 178.03 330.39 178.25 330.67 178.54 330.49 178.89 329.89 177.98 329.95 177.98 329.59 177.46 328.66 177.19 328.46 176.97 328.34 176.82 328.18 176.76 327.86 176.62 327.59 176.2 327.47 175.94 327.69 175.64 327.8 175.34 327.25 174.75 326.93 174.46 326.54 174.24 326.14 174.15 325.88 174.11 325.57 174.02 325.25 173.8 325 173.56 324.79 173.21 324.7 173.03 323.92 173.06 323.34 173.42 323.08 173.6 322.7 173.5 322.37 173.56 321.94 173.79 321.79 173.86 321.03 174.32 320.39 175.32 320.78 175.69 321.26 175.71 321.32 175.68 321.55 175.69 321.61 175.77 321.62 175.94 321.48 176.09 321.34 176.22 321.39 176.33 321.58 176.16 321.73 175.79 322.32 175.72 322.71 175.87 323.04 176.13 322.91 176.5 322.35 177.29 322.55 177.68 322.94 177.97 323.33 177.78 323.55 177.72 323.79 177.78 324.4 177.74 324.8 177.54 325 177.39 324.76 177.26 324.15 177.03 324.15 177.11 325.06 177.46 325.31 177.56 325.74 177.22 326.02 177.75 326.32 177.95 326.45 178.18 326.65 178.44 326.81 178.53 326.96 178.67 326.88 178.78 326.73 179.13 326.59 179.28 326.38 179.51 326 180.85 326.39 182.2 326.88 182.59 326.78 182.14 326.33 180.74 324.63 180.7 323.9 180.94 323.52 181.16 322.93 181.11 322.4 180.25 321.87 179.46 321.19 178.73 321.41 178.24 321.7 177.98 321.7 177.94 321.2 177.3 320.82 177.02 320.99 176.72 321.31 176.37 321.34 175.99 321.12 175.89 320.84 175.65 320.19 175.8 320.21 176.06 320.28 175.97 319.82 175.99 319.6 176.34 319.47 176.3 319.24 176.02 319.22 175.53 319.66 175.4 319.39 175.35 319.07 175.38 318.74 175.05 318.63 175.11 319.18 175 319.74 174.9 319.93 174.72 319.87 174.3 319.85 174.12 320.14 173.94 320.2 173.83 319.56 174.38 319.44 174.46 319.15 174.37 318.89 174.14 318.69 173.85 318.54 173.58 318.43 173.67 318.21 173.67 318.06 173.58 317.92 173.4 317.73 173.2 317.85 172.95 317.88 172.67 317.8 172.23 317.45 171.97 317.38 171.3 317.38 171 317 171.28 316.24 171.34 315.81 171.55 315.69 171.74 315.74 172.01 315.52 171.95 315.36 171.82 315.07 171.49 314.57 171.62 313.87 171.72 313.27 172.03 313.01 172.76 313.57 173.37 313.49 174.11 312.56 174.27 312.79 174.2 313.49 174.82 313.73 175.93 313.44 177.56 313.86 177.74 314.29 177.75 314.3 177.88 314.97 178.07 315.25 178.34 315.47 178.69 315.61 178.6 315.27 178.43 314.69 178.56 313.86 178.88 313.36 179.19 313.09 178.96 312.78 179.13 312.59 177.79 311.86 177.29 311.38 177.04 311.12 177.29 310.79 177.48 310.42 177.84 310.36 178.28 310.82 178.43 311.13 178.62 311.44 178.96 311.58 179.2 311.42 179.09 311.07 178.5 310.44 178.31 309.62 178.77 309.11 178.73 308.61 179.14 308.94 179.57 309.03 180.2 308.74 181.02 309.14 181.51 309.63 181.4 309.88 181.11 310.19 181 310.48 181.31 310.63 181.55 310.4 181.66 310.66 181.66 310.91 181.88 311.13 182.22 311.27 182.94 311.35 183.25 311.22 183.54 310.95 183.65 310.32 183.93 310.08 184.72 309.79 185.18 309.65 185.47 309.73 185.75 309.54 185.85 309.47 186.18 309.43 186.53 309.3 186.83 309.08 186.98 308.75 186.67 308.76 185.85 308.93 185.6 308.85 185.54 308.5 185.31 308.42 185 308.37 184.87 308.25 184.9 308.07 185.04 307.86 185.31 307.65 185.58 307.61 185.83 307.61 186.09 307.52 186.53 307.22 186.46 306.9 186.61 306.62 186.9 306.64 187.18 306.64 187.41 306.61 187.59 306.52 187.77 306.36 187.85 305.71 188.18 305.85 188.46 306.02 188.59 306.25 188.35 306.49 188.45 306.9 188.81 307.08 188.97 307.18 189.5 307.09 189.59 307.3 189.33 307.68 189.53 307.83 189.84 307.98 189.97 308.05 190.1 307.92 190.26 307.91 190.36 307.77 190.61 307.45 191 307.44 191.71 307.46 192.1 307.3 192.55 307.26 192.78 306.97 192.85 306.59 192.98 306.09 192.87 305.89 192.76 305.61 192.26 305.86 191.8 306.2 191.48 306.33 191.15 306.16 190.86 306.02 190.69 305.89 190.4 305.96 190.09 305.73 189.94 305.29 190.07 305.09 190.35 305.14 190.49 305.52 190.84 305.72 191.39 305.78 192.44 305.4 192.84 305.09 193.18 304.74 193.53 304.46 193.93 304.35 194.13 304.1 194.53 303.7 194.59 303.2 194.5 302.75 194.22 302.7 194.02 302.5 194.06 302.19 194.19 302.05 194.38 301.96 194.64 301.79 194.79 301.6 195.07 300.82 195.28 301.01 195.55 300.98 196.14 300.66 196.36 300.46 196.45 300.29 196.6 300.17 197.02 300.1 198.24 300.19 198.78 300.13 199.32 299.77 200.1 298.79 200.3 298.72 200.63 298.68 200.94 298.7 201.31 298.86 201.94 298.55 202.83 298.53 203.8 298.66 203.62 299.15 203.99 299.01 204.65 299.02 204.9 299.33 205.15 299.78 205.56 299.95 205.99 299.9 206.31 299.7 206.7 299.24 206.91 298.69 207.61 298.2 208.39 297.98 208.69 298.23 208.6 298.77 208.37 299.09 208.3 299.24 208.32 299.39 208.03 299.73 208.26 300 208.21 300.35 207.81 300.34 207.9 300.59 207.97 300.78 207.81 300.99 207.69 301.15 207.27 301.39 207.23 301.73 207.23 301.83 207.34 301.91 207.84 302.02 208.39 301.91 208.3 302.77 208.37 302.96 208.46 303.63 208.72 304.13 209.52 305.28 209.87 306.02 210.3 306.49 210.86 306.76 211.29 306.71 211.96 306.83 213.06 306.97 213.86 307.19 214.8 307.26 215.51 307.84 216.51 307.87 217.66 308.03 218.95 307.86 219.09 307.67 220.02 306.97 220.44 306.57 220.65 306.02 221.02 305.66 221.6 305.42 222.38 305.32 222.96 305.31 223.38 305.25 223.82 305.4 224.34 305.65 224.85 305.59 225.36 305.66 225.93 306.32 226.54 307.25 226.96 307.89 227.15 308.4 227.23 308.94 226.95 309.63 227.16 310.35 226.9 310.89 226.44 311.69 226.36 312.28 226.14 312.36 225.55 312.11 225.14 311.94 224.67 312.1 224.54 312.47 224.62 312.87 224.52 313.2 223.88 313.33 223.66 313.43 223.53 313.83 223.02 313.9 222.51 313.9 222.28 313.75 221.91 313.4 221.22 313.48 221.02 314.05 221.33 315.78 221.79 316.09 222.29 316.25 223.95 316.31 225.03 315.83 226.2 316.28 226.48 315.86 227.8 316.29 229.34 316.53 230.08 316.32 230.94 315.91 231.41 315.97 230.88 316.73 230.61 317.27 230.63 317.66 230.43 317.84 230.03 317.98 229.57 318.45 229.46 318.89 229.02 319.53 229.87 319.9 230.54 319.5 231.35 319.49 231.64 319.6 230.94 320 230.54 320.38 230.4 320.69 230.84 320.88 231.11 320.76 231.49 320.82 231.75 321.03 232.09 321.05 232.18 320.76 232.23 320.44 232.43 320.43 232.65 320.85 232.83 321.08 233.07 321.22 233.3 321.26 233.53 321.18 233.69 321.03 233.81 320.45 234.26 321.17 234.16 321.49 233.5 321.64 232.51 321.59 232.1 321.6 231.93 322.07 231.52 322.5 231.42 323.24 231.72 323.41 232.23 323.85 232.62 323.85 232.87 324.23 233.14 324.14 233.38 324.08 233.54 324.16 233.68 324.31 233.87 324.38 234.18 324.24 234.16 324.37 234.27 324.49 234.47 324.43 234.81 324.06 235.47 324.17 236 324.27 236.07 324.52 235.57 324.45 235.04 324.68 234.57 324.77 233.78 325.29 233.45 325.66 233.57 325.83 233.81 325.93 233.92 326.12 233.65 326.54 233.42 326.71 233.2 326.8 232.98 326.94 232.77 327.24 233.1 327.28 233.86 327.19 234 327.33 233.83 327.68 233.42 327.97 232.95 328.14 232.58 328.12 232.09 328.51 230.89 328.37 230.65 328.92 230.65 329.63 230.63 329.7 230.6 329.83 230.49 329.93 230.37 329.99 230.3 330.06 230.24 330.5 230.21 330.88 230 330.98 229.64 330.55 229.34 330.45 229.2 330.8 228.79 331.01 228.47 331.47 228.15 331.71 228.02 331.84 227.95 331.95 227.96 332 228 332.07 228.02 332.27 227.92 332.55 227.46 333.24 227.32 333.4 226.96 333.5 226.43 333.45 226.32 333.56 226.18 334 225.74 334.76 225.82 335.08 226.09 335.36 226.53 335.36 226.69 335.43 227.14 335.87 226.65 336.35 226.09 336.47 225.66 336.33 225.17 336.25 Z M 303.05 301.52 303.88 301.37 304.34 301.21 304.63 301.35 304.14 301.58 303.36 301.89 302.4 302.28 302.07 302.59 301.17 302.69 300.94 303.12 300.21 303.17 299.99 303.88 299.36 303.98 299.16 304.38 297.07 305.56 295.7 305.99 294.99 306.47 295.31 306.78 294.67 307.37 294.58 307.68 294.39 307.86 294.04 307.98 293.7 307.9 293.35 308.09 293.43 308.54 293.38 308.85 292.94 309.15 292.34 309.75 291.61 310.96 290.83 313.13 290.66 314.09 290.42 314.83 290.36 315.18 290.23 315.84 290.21 316.42 289.86 316.74 289.38 315.87 288.96 315.31 288.6 315.37 288.05 315.24 288.09 314.71 287.37 314.09 286.35 312.93 285.97 312.13 285.23 311.89 284.52 311.61 283.83 311.01 283.4 310.12 281.59 309.95 279.23 309.45 278.62 308.99 276.89 309.21 275.24 309.55 274.76 309.91 273.67 310.31 271.59 311.13 271.19 311.73 271.31 312.15 270.92 312.48 270.28 312.7 269.68 312.79 269.27 312.8 269 312.84 268.78 312.96 268.53 313.15 268.05 313.72 267.92 313.78 267.99 313.33 267.82 313.26 267.64 313.15 267.13 313.43 266.54 313.89 266.16 314.42 266.26 314.92 266.09 315.23 266.16 315.44 266.32 315.62 266.42 315.8 266.45 315.93 266.55 316.02 266.58 316.14 266.54 316.32 266.43 316.42 266.31 316.49 266.26 316.58 266.12 317.18 265.81 317.52 265.45 317.81 265.15 317.99 265.22 318.54 265.41 318.72 265.01 318.92 264.85 318.63 264.5 318.61 263.86 319.28 263.02 320.52 262.38 321.24 262.11 321.57 262.16 321.97 262.13 322.2 261.92 322.31 261.53 322.07 260.97 321.79 260.08 322.19 259.66 323.14 259.47 324.12 259.85 325.29 259.68 326.17 259.36 326.34 258.61 326.3 258.46 326.59 258.53 327.04 258.47 327.57 258.84 327.77 259.02 328.07 259.23 328.28 259.72 328.66 260.06 329.03 260.32 329.5 260.34 329.99 259.67 330.22 259.21 330.01 259.01 329.89 258.88 329.7 258.63 329.2 258.5 329.01 258.05 328.71 257.43 328.51 256.86 328.61 256.56 329.17 256.33 328.75 255.98 328.73 255.59 328.95 255.24 329.27 254.79 329.48 254.26 329.47 253.75 329.33 253.38 329.17 252.66 328.61 252.2 328.22 251 328.49 250.05 329.18 249.85 328.64 249.94 327.96 250.52 327.29 250.95 326.49 251.72 325.78 252.04 325.45 252.14 325.14 250.36 325.15 250.03 325.22 249.81 325.2 248.7 324.56 248.28 324.43 248.62 324.78 248.12 324.74 247.7 324.57 247.39 324.6 247.21 325.14 247.37 325.2 247.59 325.39 247.74 325.48 247.3 325.65 246.87 325.59 246.52 325.35 246.05 324.51 246.61 324.12 246.33 323.57 246.66 323.18 246.8 322.98 246.29 322.2 246.03 321.76 245.25 321.68 244.7 321.47 244.11 322.38 243.74 322.3 244.21 321.68 244.11 321.32 244.4 321.03 245.53 321.45 246.03 321.38 246.33 321.07 245.81 321.07 245.96 320.69 245.97 320.35 245.81 320.1 245.45 320.01 245.45 319.85 246.03 319.88 246.14 319.85 246.25 319.77 246.44 319.58 246.51 319.39 246.24 319.31 245.48 319.29 245.24 319.15 245.1 318.8 245.17 318.48 245.7 318.34 245.46 318.05 245.17 317.89 244.8 317.69 244.59 317.94 244.16 318 244.06 317.57 244.71 317.41 245.36 317.54 245.73 317.56 245.77 317.89 246.19 318.14 246.4 318.46 246.89 318.15 246.83 317.7 247.12 317.32 247.69 317.22 248.01 316.98 247.71 316.57 247.39 316.38 247.83 316.06 247.39 316.05 246.96 316.18 246.83 315.95 246.55 315.85 246.37 315.7 246.37 315.33 246.89 315 247.34 314.9 247.42 314.72 246.42 314.68 244.71 314.98 244.23 314.86 243.94 314.68 243.65 314.6 243.79 314.3 243.97 314.2 244.4 314.16 244.59 314.03 244.64 313.88 244.74 313.15 244.25 313.49 243.95 313.17 243.97 312.58 244.4 312.1 244.4 311.92 244.05 311.92 244.15 311.72 244.3 311.56 244.5 311.45 244.74 311.38 243.71 310.83 243.24 310.78 242.77 310.8 242.49 310.92 242.2 311.05 241.82 310.87 241.07 311.31 240.43 311.48 239.42 311.94 238.53 312.35 237.77 312.8 237.5 313.19 237.27 313.46 236.85 313.45 236.52 313.29 236.75 312.87 235.8 313.36 234.57 313.94 234.18 313.84 234.67 313.42 235.24 313.14 236.34 312.31 237.4 312.01 237.85 312.13 238.19 312.01 237.95 311.78 237.9 311.57 238.32 311.35 239.05 311.11 239.62 311.14 240.1 310.87 240.71 310.88 241.46 310.33 244.51 309.06 244.93 308.73 245.1 308.32 245.26 308.08 246.01 307.33 246.24 307.17 246.78 306.74 249.38 305.83 249.81 305.48 250.5 305.08 251.3 304.41 251.83 303.36 251.79 302.59 251.65 301.89 251.88 300.95 252.07 300.26 252.22 299.56 253.32 299.41 253.38 298.78 253.77 298.24 253.7 297.2 254.44 296.77 255.69 296.08 256.08 295.67 257.54 295.35 257.62 294.92 257.82 294.68 257.72 294.23 257.2 294.2 256.93 294.19 256.98 293.95 257.44 294.01 257.78 294.02 258.13 293.47 258.43 293.88 258.62 293.99 258.75 294.17 259.01 294.31 260.43 295.75 261.17 297.33 261.39 297.77 261.6 298.14 261.84 298.41 262.39 298.62 262.88 298.82 263.39 298.86 264.07 298.63 264.98 298.46 265.88 298.23 266.01 297.77 266.79 297.53 267.32 297.59 267.91 297.35 268.38 297.36 268.87 297.55 270.28 297.47 270.88 297.57 272.12 297.96 272.75 298 273.29 297.85 273.72 297.59 274.05 297.27 274.33 296.95 274.71 296.58 275.57 295.93 275.91 295.54 276.1 295.07 276.27 293.9 276.22 292.8 276.09 292.36 275.88 292.01 275.56 291.66 275.14 291.36 274.72 291.14 274.32 290.88 273.97 290.44 274.51 290.69 275.27 290.96 276 291.1 276.44 290.96 276.9 291.37 277.64 291.16 278.43 290.65 279.01 290.16 279.71 289.7 281.3 289.08 282.08 288.67 282.31 288.41 282.51 288.05 282.74 287.74 283.06 287.61 283.29 287.58 283.7 287.46 283.94 287.44 284.19 287.49 284.57 287.73 285.04 287.83 285.35 288.05 285.63 288.14 285.86 288.13 286.27 287.99 286.5 287.98 287.41 288.17 287.59 287.99 287.91 287.44 288.32 287.84 288.47 287.68 288.52 287.32 288.59 287.09 289.01 287.03 289.25 287.19 289.38 287.47 289.47 287.79 289.47 288.5 289.59 288.75 290.01 288.86 290.21 288.74 290.77 288.18 290.89 287.98 291.43 288.34 292.01 288.51 292.29 288.8 291.94 289.54 292.95 290.03 293.28 290.09 293.59 290.19 294.15 290.66 294.51 290.77 295.19 290.68 295.51 290.69 295.64 290.87 295.75 291.08 296 291.34 296.62 291.75 297.36 291.77 298.05 291.34 299.73 291.41 300.27 291.2 300.59 291.14 300.92 290.66 301.02 290.95 300.75 291.24 300.59 291.61 301.01 291.55 301.46 291.11 301.94 290.96 301.79 291.31 301.44 291.72 301.4 291.94 301.39 292.13 301.44 292.27 300.94 292.37 301.23 292.42 301.47 292.53 301.82 292.5 301.62 292.84 301.35 293.23 301.27 293.5 301.32 293.65 300.87 294.26 300.86 294.92 300.94 295.37 300.79 295.47 300.62 295.92 300.59 296.08 300.6 296.34 300.73 296.86 300.87 297.08 301.04 297.18 301.36 297.17 301.42 296.9 301.69 296.83 302.05 297.47 302.36 297.9 303.21 298.34 303.06 298.59 303.38 298.72 303.37 299.14 303.38 299.51 303.07 299.78 302.97 300.03 302.63 300.15 302.34 300.29 301.93 300.88 302.3 301.05 303.75 301.01 303.75 301.17 303.52 301.2 303.26 301.31 303.05 301.35 303.05 301.52 Z M 262.73 242.88 263.1 243.4 262.78 244.08 262.17 244.74 261.65 245.16 261.64 244.41 261.71 243.64 262.02 243.06 262.73 242.88 Z M 261.94 242.67 262.01 242.53 262.54 242.78 262.01 242.88 261.94 242.67 Z M 261.52 242.41 261.87 242.43 261.88 242.66 261.86 242.85 261.49 242.93 261.12 243.05 260.95 243.5 261 243.77 261.08 243.96 261.05 244.11 260.77 244.28 260.54 244.31 260.31 244.25 260.12 244.14 260.05 244.03 260.05 243.78 260 243.65 259.87 243.6 259.62 243.6 259.37 243.72 259.44 243.99 259.72 244.46 259.49 244.72 259.14 244.67 258.73 244.44 258.31 244.11 258.83 243.59 259.99 242.85 260.61 242.34 261.07 242.49 261.52 242.41 Z M 270.47 285.67 270.22 286.19 268.38 288.16 267.98 288.45 267.21 288.75 266.86 288.84 266.55 288.82 266.42 288.58 266.55 288.39 266.87 288.3 267.22 288.24 267.47 288.14 267.71 287.7 267.45 287.4 266.89 287.26 266.26 287.28 266.26 287.09 266.73 286.78 266.47 286.29 265.97 286.14 265.52 287.44 265.1 287.77 264.63 288.01 264.3 288.33 264.81 288.67 264.98 289.19 264.83 289.68 264.38 289.89 264.2 289.84 263.88 289.59 263.75 289.54 263.61 289.6 263.32 289.84 262.83 290 262.26 290.5 262.01 290.61 261.58 290.43 261.43 289.98 261.47 288.94 261.59 288.96 261.86 288.71 262.27 288.23 262.55 288.06 262.65 288.31 262.62 288.71 262.53 289.03 263.04 288.93 263.41 288.07 263.95 287.98 263.95 287.79 263.54 287.5 263.07 287.28 262.78 287.23 262.53 287.24 262.28 287.22 262.01 287.09 261.65 287.28 261.82 288.08 261.13 288.56 260.09 288.79 257.35 289.01 256.61 289.28 255.84 289.72 255.41 289.11 254.94 289.31 254.45 289.8 253.91 290.09 253.5 290.16 253.55 290.34 253.78 290.59 253.91 290.87 253.74 291.06 253.36 291.13 252.59 291.14 251.98 291.31 250.78 291.98 250.03 292.02 249.91 291.92 249.81 291.74 249.73 291.57 249.68 291.49 249.44 291.54 249.32 291.65 249.25 291.77 249.16 291.85 248.46 292.17 248.16 292.16 247.91 291.85 248.3 291.49 248.07 291.17 247.62 290.81 247.3 290.17 246.95 289.83 246.86 289.72 246.85 289.38 246.95 289.18 247 288.98 246.86 288.67 247.04 288.63 247.36 288.51 247.56 288.49 247.44 288.22 247.22 288.03 246.68 287.79 246.28 287.99 245.78 288.12 245.26 288.11 244.34 287.64 243.77 287.71 242.81 288.14 241.94 288.7 239.63 290.96 239.87 291.32 240.04 291.85 240.09 292.23 240.18 292.81 240.05 293.44 239.76 293.71 239.41 293.91 239.1 294.31 239.03 295.44 239.33 296.46 239.39 297.37 238.58 298.19 237.95 298.42 237.58 298.48 237.4 298.69 237.35 299.33 237.48 299.8 238.02 300.77 238.07 301.17 237.77 301.47 236.63 302.01 235.86 302.58 235.35 302.83 234.98 302.85 235.06 302.42 235.59 302.07 235.68 301.95 235.88 301.56 235.93 301.35 236.15 301.6 236.45 301.64 236.71 301.47 236.82 301.09 236.72 300.64 236.47 300.39 236.15 300.23 235.85 300.02 235.4 299.8 233.78 299.33 233.2 299.24 233.05 299.12 232.42 298.37 232.14 298.21 231.43 297.96 231.18 297.84 230.59 297.4 230.11 297.15 229.64 297.24 229.09 297.84 229.45 297.84 229.45 298 228.55 298.03 228.25 297.88 228.19 297.47 228.96 296.96 229.39 296.59 229.36 296.42 229.12 296.37 228.76 296.13 227.27 295.66 226.29 295.97 225.91 295.89 225.59 296.07 224.78 296.36 224.49 296.42 223.79 296.42 223.68 296.33 223.58 296.18 223.46 296.15 223.25 296.42 223.48 296.71 223.57 297.04 223.45 297.32 223.09 297.47 222.91 297.49 222.8 297.46 222.75 297.37 222.74 297.2 222.66 296.99 222.51 296.97 222.38 297.05 222.37 297.12 221.56 296.89 221.33 296.79 220.88 296.38 220.62 296.28 220.26 296.42 220.39 296.63 220.4 296.75 220.26 296.95 220.2 296.93 219.95 297.12 219.91 297.28 219.83 297.37 219.82 297.47 219.76 297.56 219.55 297.65 219.37 297.61 219.22 297.47 219.1 297.28 219.02 297.12 218.89 297.38 218.74 297.54 218.56 297.58 218.32 297.47 218.55 297.12 218.61 296.66 218.51 296.26 218.23 296.08 218.06 296.26 217.35 297.38 216.76 298.08 216.49 298.31 215.21 298.99 214.84 299.04 214.63 298.7 214.44 298.79 214.21 298.83 214.01 298.78 213.93 298.61 213.88 298.38 213.76 298.37 213.59 298.46 213.41 298.52 213.36 298.58 213.21 298.71 213.02 298.83 212.79 298.89 212.66 298.8 212.6 298.6 212.33 298.32 212.36 298.02 212.5 297.81 212.48 297.69 212.26 297.65 211.4 297.11 210.86 296.33 210.07 296.15 209.13 295.87 208.57 296.73 207.4 297.84 206.46 298.51 206.32 299.09 206.04 299.32 205.62 299.05 205.48 298.84 205.11 298.7 205.13 298.38 205.63 298.39 205.89 297.78 205.84 297.49 205.98 297.12 206.08 296.82 205.97 296.54 205.78 296.34 205.96 295.73 205.74 295.41 205.09 295.36 204.95 295.09 204.85 294.75 204.68 294.49 204.65 294.21 204.95 293.79 205.29 293.53 205.62 293.36 205.93 293.13 206.18 292.72 206.24 292.38 206.16 292.15 206.05 291.97 205.91 291.32 205.56 290.81 205.48 290.52 205.42 290.43 205.03 290.16 204.91 289.93 205.01 289.74 205.18 289.56 205.29 289.38 205.37 288.59 205.46 288.28 205.64 287.98 205.93 288.09 206.34 288.14 206.72 288.08 206.88 287.88 207.05 287.81 208.11 287.61 208.51 287.44 209.07 287.29 208.67 287 208.3 287.01 207.31 286.82 207.06 286.73 206.9 286.95 206.83 287.02 206.51 286.93 206.65 286.63 206.87 286.34 207.15 286.12 207.6 285.82 207.95 285.92 208.28 286.16 208.24 286.44 208.46 286.56 208.79 286.58 209.17 286.54 209.52 286.43 209.78 286.29 210.13 286.19 210.76 286.48 211.18 286.57 211.65 286.53 211.83 287.38 212.16 287.61 212.65 287.65 212.81 287.37 213.14 286.99 212.67 286.56 212.59 286.39 212.61 286.06 213.16 286.19 213.54 286.08 214.25 285.96 214.7 285.86 215.01 286.1 215.44 286.62 215.05 286.58 214.66 286.33 214.41 286.28 214.11 286.37 213.92 286.61 213.76 286.9 213.65 287.24 213.58 287.61 213.76 287.54 214.09 287.33 214.28 287.28 215.52 287.23 216.51 287 216.81 286.41 217.59 286.42 218.86 286.21 218.83 285.44 219.17 285.14 219.94 284.5 220.08 284.27 219.9 283.76 220.08 283.65 220.62 283.54 221.6 282.92 222 282.57 222.37 282.16 222.49 281.88 222.53 281.3 222.73 281.18 223.25 281.21 223.53 281.25 223.48 281.02 223.48 280.6 223.55 280.15 224.02 280.02 224.39 280.16 225.08 280.31 225.45 280.07 225.52 279.86 225.7 279.76 226.5 279.84 227.39 279.75 228.52 279.47 229.36 279.16 229.82 278.98 230.27 278.74 230.39 278.15 230.49 277.93 230.67 277.59 231.25 277.5 231.38 277.3 231.95 276.85 232.81 276.21 233.84 275.59 234.46 274.85 234.8 274.57 235.3 274.69 235.47 274.34 235.54 273.78 236.77 272.86 237.3 272.46 237.97 272.02 239.47 271.05 239.99 270.51 240.87 270.37 241.46 270.16 242.06 269.8 242.31 269.04 243.09 268.54 243.68 268.19 243.92 267.94 243.85 267.66 244.25 267.28 244.4 266.9 245.93 265.92 246.66 265.43 247.53 265.11 247.58 264.78 248.06 264.66 248.71 264.38 249.88 264.09 250.33 263.83 250.66 263.36 250.96 262.93 251.17 262.27 251.24 261.84 251.24 261.5 251.15 261.13 250.72 260.94 250.13 260.61 249.95 260.32 250.24 260.07 250.77 260.02 251.44 259.86 251.94 259.86 252.79 259.87 253.15 259.8 253.31 259.68 253.05 259.49 252.56 259.3 252.84 259.25 253.26 259.14 253.84 259.04 254.6 258.67 255.44 258.39 256.14 258.27 257.62 258.21 258.24 258.07 258.84 258.11 258.93 257.47 259.4 257.41 259.99 257.5 260.48 257.37 260.71 256.97 260.95 256.66 261.28 256.49 261.71 256.61 261.96 256.3 261.96 255.94 262.32 256.04 262.69 256.37 263.25 256.75 263.64 256.94 264.49 256.7 264.94 256.68 265.39 256.42 265.53 256.54 265.35 256.79 265.48 256.89 265.77 256.92 265.94 256.82 266.46 256.64 266.99 256.59 267.55 256.57 267.99 256.79 267.66 256.96 267.3 257.04 266.99 257.17 266.56 257.28 266.23 257.62 266.16 257.68 266.15 257.99 266.31 258.29 266.42 258.65 267.19 259.05 268.09 259.44 268.89 259.57 269.4 259.67 269.9 259.73 270.34 259.67 270.96 258.78 272.28 258.28 273.12 257.97 274.53 257.69 275.87 258 278.41 258.48 283.04 258.18 285.53 257.6 286.21 258.05 289.78 257.62 291.43 257.35 292.05 257.17 292.56 256.88 292.87 256.34 294.12 256.14 294.37 256.13 294.61 256.09 294.99 255.69 295.95 255.44 297.3 255.02 298.12 254.6 299.12 254.12 300.49 254.45 301.96 254.33 303.09 254.35 305.03 254.27 305.84 254.29 306.22 254.38 306.76 254.51 306.97 254.81 307.51 254.48 307.96 254.51 308.07 254.8 308.39 254.72 308.85 254.84 309.14 254.92 309.67 254.57 309.83 254.49 310.09 254.41 309.98 254.08 310.71 253.67 311.3 253.64 311.77 253.59 312.17 253.37 313.23 252.74 313.18 252.41 314.47 252.08 315.75 251.86 316.42 251.78 316.85 251.55 317.46 251.92 317.75 252.39 318.13 252.6 318.54 253.11 318.84 253.7 318.89 254.14 318.71 254.49 318.2 254.22 317.67 254.52 317.35 255.07 317.25 255.4 317 255.62 316.29 256.31 315.86 256.88 315.86 257.39 316.06 257.53 316.33 257.48 316.37 257.03 316.72 256.8 317.07 256.38 317.4 256.19 317.53 256.72 317.84 256.83 317.98 256.93 317.76 257.07 317.5 257.08 317.18 257.06 317.16 257.47 318.77 258.21 319.15 258.08 319.36 257.92 319.64 258.34 319.49 258.69 319.37 258.92 319.12 259.4 319.08 259.61 319.22 259.91 319.51 259.72 319.75 259.29 320.08 258.89 320.54 258.91 321.17 259.16 321.36 259.01 321.36 258.37 320.63 258.51 320.02 258.29 319.7 257.59 320.31 257.16 320.63 257.07 321.37 257.06 321.71 256.97 321.97 256.76 322.22 256.49 322.32 256.22 322.93 255.89 322.8 256.31 322.65 256.71 323.1 256.86 323.43 257.03 323.33 257.43 323.37 257.68 323.32 257.85 323.33 257.97 323.57 258.02 323.76 257.94 323.94 257.74 324.19 257.32 324.19 257.78 324.09 258.24 324.15 258.6 324.63 258.74 325.37 258.76 325.6 258.74 325.85 258.65 326.35 258.42 326.58 258.11 327.08 257.72 327.7 257.45 328.24 257.67 328.11 257.79 327.52 257.99 327.33 258.72 327.01 258.9 327.6 259.06 328.93 258.76 329.64 258.79 329.99 258.58 330.26 258.2 330.25 257.69 329.55 257.98 329.23 257.51 328.8 257.37 329.17 256.95 330 256.74 330.25 256.9 330.46 257.29 331 257.27 331.43 257.74 331.85 257.86 332.46 257.67 332.19 257.56 332 257.37 331.62 256.8 331.69 256.62 331.98 256.56 332.25 256.77 332.61 256.66 332.99 256.52 332.91 256.33 332.73 256.19 332.55 256 332.46 255.64 332.36 255.54 331.99 255.19 331.88 254.86 332.18 254.83 332.63 255.12 332.96 255.34 333.33 255.52 334.2 255.35 334.4 255.6 334.65 255.77 335.17 255.51 335.46 255.24 335.98 255.31 336.22 255.2 336.25 254.86 335.79 254.56 336.03 254.02 336.06 253.64 335.95 253.33 335.6 253.4 335.59 252.68 336.25 252.39 337.23 251.73 337.59 252.22 337.53 252.43 337.72 252.83 337.93 253.31 337.8 253.63 337.54 253.63 337.42 253.9 337.84 254.18 337.94 254.47 338.5 254.39 338.64 253.95 338.81 253.82 338.87 253.66 338.85 253.3 339.1 253.02 339.1 252.78 339.11 252.3 339.29 251.87 339.28 251.46 338.99 250.96 338.69 250.54 338.54 250.2 337.98 249.85 337.04 249.02 336.55 248.65 336.6 247.93 336.58 247.35 335.97 246.73 335.63 246.39 335.78 245.7 336.4 245.4 336.73 245.08 337.18 244.22 337.52 243.62 337.84 242.85 339.11 241.55 339.49 240.94 339.81 240.57 340.19 239.93 339.79 239.37 339.91 239.19 340.45 239.16 340.9 239.22 341.78 238.9 343.89 237.41 344.39 236.77 345.64 236.3 346.55 235.65 347.78 234.58 353.17 228.67 354.45 226.92 356.27 223.32 356.4 222.84 356.4 222.22 356.21 222.07 356.01 221.91 356.05 221.66 356.28 221.22 356.45 220.49 356.25 219.99 355.8 219.65 355.53 218.77 355.24 218.58 355.19 218.04 355.4 216.74 355.25 216.35 354.94 216.14 354.67 216.2 354.62 216.49 354.11 216.47 353.95 216.14 354.06 215.49 354.25 214.88 354.47 214.47 354.86 214.13 354.66 213.84 355.04 213.54 355.39 213.07 355.57 212.67 355.34 212.35 355.27 211.63 355.98 210.8 356.87 210.39 358.37 209.73 359.36 209.51 359.95 209.76 360.75 209.73 363.58 208.48 364.26 208.35 364.77 207.85 365.35 207.46 368.99 206.51 370.03 206.34 371.19 206.71 371.44 206.99 371.26 207.49 371.3 207.79 371.65 208 371.58 208.35 371.45 208.54 370.78 208.71 370.34 208.69 369.81 208.61 369.32 208.78 368.94 208.97 368.75 209.37 368.53 210.23 368.82 210.81 369.3 210.87 369.25 211.26 369.17 211.62 369 211.89 368.53 212.24 368.34 212.49 367.8 212.47 366.68 212.26 365.22 212.71 364.81 213.28 364.26 213.88 364.24 214.38 363.82 214.59 363.27 214.74 363.12 215.08 362.79 215.24 361.92 214.95 361.4 214.67 361.03 214.41 361.3 214.13 361.4 213.96 361.17 213.97 360.93 214.22 360.64 214.3 360.54 214.51 360.28 214.9 359.67 215.54 359.35 216.29 359.74 216.43 359.68 216.98 359.54 217.16 359.05 217.15 359.04 217.71 358.85 218.02 359.2 218.21 359.68 218.12 360.22 217.88 360.72 217.95 361.48 218.67 361.91 218.79 362.53 218.57 363.05 217.54 363.42 217.35 363.64 217.46 363.81 217.95 363.68 219.41 363.83 220.85 363.13 221.57 363.07 222.21 362.11 223.31 362.57 224.21 363.79 224.85 364.5 225.39 365.72 225.73 366.46 226.14 367.5 226.21 368.63 226.04 370.1 226.24 370.99 226.1 371.44 225.59 372.29 225.13 372.58 224.44 372.92 223.98 373.04 223.54 373.21 223.15 373.06 222.65 373.4 222 373.93 221.7 375.26 221.13 377.51 220.77 379.99 220.31 383.18 219.2 385.47 218.52 388.11 217.14 389.5 216.65 390.1 216.15 390.63 215.6 392.35 215.84 393.45 215.65 394.42 215.27 396.48 214.06 399.37 211.72 402.28 210.28 402.98 209.64 403.47 208.81 404.13 207.72 405.09 206.52 406.59 205.48 407.32 204.66 407.81 203.68 408.93 200.44 409.39 199.5 410.17 198.72 412.04 197.51 415.37 195.68 415.58 195.45 416.18 195.46 417.24 195.35 419.38 194.55 419.98 194.21 421.66 193.22 424.32 190.9 424.76 190.41 424.94 189.95 425.71 184.66 425.98 183.69 426.49 182.62 427.45 181.24 428.74 178.7 429.23 177.63 429.95 176.79 432.24 175.13 433.04 174.27 433.72 173.29 434.79 170.11 435.87 167.76 436.12 166.99 436.3 166.06 436.47 165.64 436.76 165.17 436.86 164.68 436.91 163.62 437.06 162.81 437.4 161.84 437.78 161.21 438.6 160.91 439.41 160.18 440.05 158.12 440.78 155.62 441.06 150.65 441.06 149.89 440.54 148.82 440.54 148.2 440.24 147.4 439.65 146.72 438.67 145.97 437.51 145.5 436.38 145.64 436.04 145.92 435.8 146.21 435.52 146.44 435.05 146.54 433.37 146.54 433.15 146.33 432.8 145.67 432.6 145.39 432.05 144.84 431.93 144.3 432.32 144.12 431.85 143.9 431.76 143.18 431.84 142.74 432.94 143.34 434.41 143.85 434.96 143.89 436.11 143.29 437.07 142.43 438.97 139.66 439.37 138.53 439.24 137.98 439.61 137.17 439.82 136.84 440.05 134.32 440.16 133.76 439.84 133.43 439.5 133.19 438.59 132.51 438.15 132.12 438.06 131.72 438.14 130.6 438.08 129.49 438.06 128.89 437.76 128.64 437.7 128.21 437.35 127.82 436.36 127.89 435.85 127.72 435.94 127.24 436.46 126.82 436.97 126.38 437.63 126.26 437.96 125.67 438.49 125.47 438.77 125.06 439.2 124.44 439.49 123.81 440.72 123.16 441.32 123.21 441.98 123.63 442.3 123.76 442.68 123.75 443.14 123.62 443.51 123.32 444.62 122.68 445.16 122.88 445.72 122.75 446.17 122.44 446.49 122.01 447.16 120.43 447.48 118.83 447.66 118.36 447.63 117.74 447.74 117.19 447.81 116.48 447.88 116.48 448.3 117.06 448.53 117.23 448.85 117.37 449.03 117.54 449.36 117.49 449.19 116.87 449.03 116.63 449.22 116.47 449.44 116.43 449.72 116.49 450.01 116.53 449.93 116.31 449.79 116.17 449.27 116.21 448.99 116.2 448.54 116.19 448.38 116.05 448.29 115.9 448.11 116.01 447.94 116.13 447.86 116.02 447.83 115.37 447.81 115.06 447.25 114.33 446.78 114.12 446.34 114.08 445.91 114.02 445.84 113.75 446.12 113.62 446.77 113.58 447.35 113.67 447.77 113.34 448 112.76 448.09 112.27 447.97 112.01 448.02 111.74 448.09 111.09 448.3 110.85 448.23 110.53 448.33 110.36 448.76 110.66 449.28 110.91 449.6 111.01 450.06 111.41 450.73 112.09 451.41 112.46 451.97 112.47 452.67 112.1 453.02 111.53 453.63 111.37 454.8 111.53 455.8 112.19 456.05 112.78 455.91 113.47 455.84 114.22 455.75 114.47 455.77 114.79 455.91 115.34 456.02 116.12 456.36 116.97 456.83 119.87 457.61 120.96 458.87 121.42 460.08 121.32 460.89 120.61 461.43 120.17 461.91 119.37 461.78 119.18 461.71 118.89 461.81 118.7 461.92 118.6 461.71 118.54 461.47 118.6 461.31 118.53 461.14 118.4 461.36 118.31 461.68 118.29 461.62 118.08 461.66 117.9 461.92 117.75 461.86 117.59 461.95 117.47 462.21 116.99 462.37 116.91 462.74 116.96 463.04 117.29 463.66 117.33 463.92 117.42 464.15 117.75 464.37 117.97 464.76 118.22 464.77 118.37 464.72 118.43 464.71 118.43 464.64 118.57 464.6 118.79 464.72 118.84 465 118.87 465.52 119 466.13 119.29 466.45 119.38 466.73 119.33 466.99 119.48 467.14 119.75 467.39 120.11 467.62 120.23 468.1 120.46 468.48 120.45 469.02 120.3 469.45 119.98 470 119.47 471.06 117.51 471.31 116.78 471.45 115.06 471.61 114.66 471.57 114.44 471.72 114.13 472.01 113.94 472.23 113.68 472.38 113.19 472.19 112.43 471.82 111.76 471.29 111.07 470.53 110.38 469.95 110.07 469.38 110.03 469.15 110.4 468.99 110.62 468.76 110.85 468.77 110.95 468.93 110.97 469.08 110.79 469.25 110.64 469.33 110.59 469.32 110.68 469.27 110.81 469.01 111.11 468.15 111.68 467.67 111.78 467.1 112.13 466.73 112.48 466.11 112.41 465.38 112.15 465.03 112.22 464.66 112.14 464.29 112.31 463.86 112.73 462.87 112.72 462.43 112.98 462.03 112.91 461.71 112.97 460.83 113.43 460.47 113.88 460.05 113.88 459.22 113.46 459.2 112.44 459.21 112.15 459.53 111.87 459.7 111.14 459.59 110.71 459.92 110.03 460.08 109.4 460.18 108.93 460.18 108.72 460.49 108.51 460.7 107.81 460.8 107.23 461.05 106.44 461.47 106.13 462.25 105.17 462.61 104.95 462.69 104.82 462.85 104.31 462.81 104 462.65 103.71 462.76 103.61 462.85 103.34 463.01 103.13 463.36 103.48 463.97 103.77 464.32 104.1 464.67 104.4 465.06 104.56 465.32 104.67 465.78 104.74 466.91 104.82 468.01 105.26 468.91 106.05 469.34 106.47 469.86 106.76 469.97 106.97 470.25 107.24 471.29 107.74 472.33 108.11 473.41 108.11 474.2 107.93 475.06 107.61 475.78 107.15 476.32 106.75 476.76 106.43 477.07 106.13 477.16 106.24 477.24 106.41 477.07 106.56 477.15 106.81 477.11 106.89 476.9 107 476.95 107.11 477.06 107.21 476.99 107.48 476.68 107.77 476.54 108.16 476.34 108.7 476.13 109.15 475.75 110.59 475.63 111.26 475.61 111.52 475.28 113.05 475.38 113.63 475.47 113.89 475.37 114.19 475.38 114.54 475.42 114.83 475.17 116.41 475.21 117.77 475.27 118.88 475.34 119.2 475.66 121.89 476.11 124.23 476.48 125.66 477.33 127.64 477.64 128.13 477.87 128.44 478.59 129.06 478.92 129.23 479.33 129.23 479.61 129.02 480.03 128.95 480.2 129.19 480.38 129.47 481.27 130 482.74 131.3 482.99 131.52 483.72 132.28 483.9 132.77 484.35 133.02 484.6 133.39 484.73 133.66 485.1 134.31 485.17 134.47 485.25 134.78 485.43 135 485.89 135.43 486.58 136.43 486.88 137.09 486.68 137.38 486.43 137.47 486.19 137.67 486.06 137.93 486.14 138.17 486.46 138.37 487.16 138.59 487.47 138.78 487.78 139.31 487.49 139.62 487.02 139.93 486.76 140.46 486.89 141.08 487.21 141.48 488.87 142.66 489.15 142.78 489.43 142.85 489.64 142.98 489.79 143.53 489.9 143.81 489.95 144.08 489.83 144.33 489.53 144.65 489.45 144.83 489.73 145.29 489.89 145.5 490.07 145.67 490.22 145.9 490.31 146.69 490.39 147.02 491 148.61 491.06 148.73 491.04 148.87 491.11 149.05 491.16 149.24 491.06 149.44 490.78 149.69 490.71 149.82 490.52 150.42 490.45 151.56 490.38 151.94 490.04 152.51 489.92 152.87 490.07 153.21 491.26 152.25 491.87 152.17 491.74 152.41 491.68 152.58 491.73 152.72 491.87 152.87 491.64 153.31 491.73 153.58 492.46 154.12 492.59 154.2 492.69 154.29 492.75 154.45 492.72 154.7 492.6 154.8 492.46 154.89 492.39 155.07 492.23 155.16 491.33 156.03 490.92 156.23 490.07 156.48 489.73 156.75 490.19 157.2 490.84 157.15 491.42 156.78 491.68 156.31 491.87 156.16 492.24 156.33 492.44 156.61 492.13 156.75 491.96 156.91 491.92 157.28 491.92 157.69 491.75 157.87 491.21 157.91 490.97 157.96 490.73 157.94 490.45 157.99 490.21 158.13 489.66 158.53 489.36 158.69 490.02 158.94 489.74 159.29 489.06 159.69 488.5 160.1 489 160.24 489.57 160.1 490.09 159.83 490.45 159.57 490.52 160.18 490.01 160.56 488.75 161.01 488.96 161.13 489.11 161.3 489.21 161.52 488.99 161.5 488.55 161.53 488.35 161.52 488.32 161.85 488.35 162.2 489.18 162.22 489.58 162.17 489.57 162.2 489.63 162.73 489.14 163.14 488.42 163.34 487.82 163.26 487.9 163.65 488.21 163.79 489.04 163.78 488.77 164.22 488.24 164.5 487.58 164.63 486.92 164.68 487.37 165.03 488.6 165.77 488.71 166.08 488.12 166.29 486.71 165.91 486.24 166.26 487.33 166.71 487.64 166.97 487.35 167.07 487.04 167.13 486.73 167.15 486.4 167.13 486.4 167.33 486.67 167.45 487.04 167.69 487.23 167.92 487.02 168.03 485.97 167.83 484.93 167.95 484.4 167.92 483.94 167.66 483.95 168.03 484.09 168.33 484.29 168.6 484.47 168.9 484.17 168.87 483.92 168.91 483.57 169.25 483.95 169.36 484.1 169.61 484.01 169.85 483.67 169.96 483.33 169.86 482.99 169.63 482.71 169.34 482.54 169.08 482.87 168.95 483.06 168.71 481.97 168.67 481.64 168.97 481.7 169.49 481.82 170.57 482.43 171.87 482.55 172.4 482 172.08 481.92 171.96 481.83 171.61 481.74 171.46 481.6 171.39 481.47 171.43 481.31 171.5 481.12 171.54 480.62 171.54 480.36 171.62 480.26 171.85 480.24 172.33 480.3 172.83 480.38 173.06 480.33 173.24 479.97 173.56 478.87 174.22 478.64 174.55 478.91 174.67 479.09 174.86 479.35 175.25 479.81 175.56 479.95 175.82 479.79 176.21 479.62 176.31 479.49 176.24 479.35 176.12 479.19 176.12 479.06 176.2 478.74 176.56 478.5 176.71 477.86 176.88 477.59 177.01 477.14 177.3 477.14 177.45 477.42 177.71 477.71 177.82 478.92 177.89 478.99 178.05 478.81 178.41 478.54 178.77 478.38 178.94 477.24 179.66 477.65 179.97 478.06 180.37 478.46 180.55 478.84 180.18 479.17 180.58 479.31 180.96 479.3 181.39 479.19 181.92 478.9 181.85 478.71 181.71 478.57 181.5 478.47 181.24 478.1 182.2 477.96 182.45 478.11 182.52 478.17 182.61 478.21 182.7 478.29 182.82 477.65 182.97 477.35 183.09 477.33 183.25 477.5 183.54 477.49 183.76 477.51 183.97 477.77 184.22 478.06 184.02 478.56 183.95 479.05 184.06 479.35 184.39 478.97 184.27 478.61 184.26 478.32 184.39 478.12 184.74 478.74 185.04 478.84 185.57 478.85 186.12 479.19 186.52 479.05 186.71 478.74 187.41 478.56 187.34 477.86 186.78 477.69 186.7 477.32 186.68 477.15 186.6 477.06 186.42 477.15 186.26 477.25 186.13 477.24 185.99 477 185.79 476.17 185.46 476.31 185.29 476.54 184.74 476.24 184.52 476.02 184.51 475.79 184.58 475.47 184.59 475.16 184.51 474.9 184.39 474.33 183.96 473.8 183.78 473.06 183.81 471.13 184.16 470.44 184.38 469.89 184.75 469.66 185.37 469.73 185.96 469.6 186 469.15 185.99 469.03 185.83 468.62 184.74 468.4 184.87 468.18 184.92 467.96 184.88 467.75 184.74 467.28 185.02 466.9 185.38 466.63 185.83 466.49 186.34 466.74 186.23 467.02 186.2 467.27 186.29 467.38 186.52 467.31 186.71 467.1 186.85 466.84 186.98 466.59 187.13 465.68 188 464.93 188.97 464.38 189.91 463.33 193.02 463.14 194.11 463.17 195.19 463.5 197.08 463.52 197.14 464.19 198.15 465.06 199.44 465.35 200.35 465.45 200.71 465.68 200.98 465.81 201.31 465.8 201.83 465.73 202.04 465.47 202.38 465.44 202.55 465.53 202.72 465.88 203.09 465.96 203.34 466.31 210.3 466.17 211.14 465.61 213.02 465.61 213.83 465.44 214.17 465.44 216.56 465.37 216.84 464.93 217.69 464.58 219.95 464.22 220.87 463.33 221.57 463.11 221.63 462.45 221.74 461.61 222.21 461 222.35 460.62 222.71 460.41 222.79 460.21 222.93 460.15 223.22 460.15 223.67 460.03 223.94 459.92 224.17 458.85 225.52 458.6 225.95 457.37 229.82 455.96 231.83 455.56 232.69 455.22 234.55 455.23 234.95 455.56 235.94 455.59 236.35 455.39 237.02 454.43 237.87 454.03 238.42 454.09 239.38 454.4 241.56 455.21 243.26 456.14 245.36 459.82 250.62 460.89 251.84 461.17 252.32 461.45 252.45 461.62 252.5 461.77 252.55 462 252.66 462.14 252.88 461.86 253.49 461.65 253.72 461.3 253.53 461.13 253.3 460.82 253.05 460.18 253.17 459.35 253.49 458.06 253.86 457.94 253.44 456.52 253.7 454.86 254.64 451.96 256.85 450.41 258.79 449.45 261.61 449.94 262.95 450.15 263.66 449.92 264.73 449.78 265.69 449.67 266.35 449.24 266.87 448.5 266.76 448.03 267.35 448.11 267.74 447.79 268.05 447.33 267.97 447.1 267.63 446.7 268.01 446.04 267.94 445.63 268.51 444.68 268.45 443.53 268.37 442.99 268.25 442.26 268.89 442.12 269.45 441.47 269.88 440.96 269.89 440.08 270.41 439.3 270.87 439.03 271.21 438.89 271.65 438.61 272.02 438.62 272.45 438.56 272.92 438.31 273.25 438.07 273.49 437.64 273.78 436.98 273.89 436.52 273.94 436.21 273.85 435.83 273.91 435.5 273.97 435.37 273.85 434.96 273.66 435.03 273.42 434.99 273.07 434.67 272.85 433.85 272.58 433.29 272.53 433.17 272.31 433.18 272.02 433.5 272.01 433.97 272.06 434.25 272.08 434.61 272.01 434.92 271.88 435.09 271.65 435.43 271.63 435.9 271.74 436.08 271.64 436.19 271.42 436.13 271.06 435.83 270.87 435.31 270.7 435.28 270.44 435.58 270.2 435.67 269.91 435.61 269.62 435.37 269.13 435.31 268.85 435.33 267.93 434.88 267.35 434.96 267.02 434.89 266.65 435.03 266.29 435.73 265.88 436.07 265.64 436.1 265.07 435.63 264.42 435.66 263.86 434.6 263.55 433.93 263.33 433.9 263.23 434.45 263.25 435.01 262.96 435.03 262.48 435.39 262.17 435.54 261.73 436.78 262.04 437.17 261.67 437.15 261.32 436.97 260.53 437.29 260.24 438.01 260.03 438.47 259.68 439.08 259.61 439.68 259.23 440.05 258.78 440.6 258.2 441.38 257.45 441.85 257.5 442.05 257.13 442.16 256.83 441.75 256.83 441.67 256.35 441.58 255.89 441.17 255.59 440.76 255.19 440.38 254.93 439.76 254.44 439.43 254.52 439.11 254.22 438.26 254.11 437.49 254.39 437.98 255.03 437.27 255.36 436.89 255.61 436.74 255.39 436.43 255.34 436.21 255.18 436.04 255.16 435.69 255.02 435.51 255.24 435.35 255.61 435.01 255.39 434.92 255 434.57 255 434.4 255.5 434.11 255.9 433.75 255.53 433.77 254.92 433.5 254.61 433.32 255.17 433.59 255.96 434 256.48 434.01 256.8 434.37 257.52 434.06 257.85 434.09 258.21 434.05 258.25 433.84 258.5 432.97 258.95 432.18 259.46 431.52 259.55 430.97 259.37 430.58 259.46 430.34 259.73 430.85 259.93 431.32 260.13 431.5 260.29 431.36 260.64 431.49 261.1 431.17 261.1 430.54 260.85 430.17 261.08 430.34 261.42 430.72 261.71 430.66 262.68 430.53 263.01 430.54 263.42 430.5 263.75 430.73 264.03 430.91 263.72 431.23 263.91 431.67 264.49 432.7 264.59 432.99 265 432.49 265.41 432.58 265.51 432.62 265.6 432.65 265.68 432.54 266.08 431.53 266.03 430.96 266.42 430.81 266.82 431.07 267.29 431.32 267.56 431.44 267.79 431.18 267.89 430.91 267.94 430.32 267.81 429.9 268.01 429.67 267.96 429.55 267.75 429.67 267.48 429.62 266.93 429.3 266.21 429.87 265.96 429.76 265.75 429.36 265.64 429.19 265.27 428.47 264.49 428.39 264.31 428.24 264.03 427.93 264 427.82 263.49 427.37 263.64 426.85 263.58 426.34 263.68 425.83 263.35 424.49 263.21 422.31 263.58 421.08 263.79 419.83 264.07 418.55 264.64 417.58 265.36 417.49 266.67 417.89 267.89 416.94 267.54 416.1 268.57 415.8 269.47 415.78 270.04 416.55 270.13 416.45 270.62 416.33 271.11 416.06 271.47 416.42 272.05 417.19 272.3 417.5 272.89 417.64 273.84 417.45 274.73 416.9 274.81 416.38 275.1 416.1 275.46 415.99 275.81 415.75 276.31 415.35 276.73 415.16 277.11 414.94 277.38 414.51 277.46 414.32 277.72 414.11 277.91 413.8 278.26 413.9 278.55 413.76 278.73 413.54 279.08 413.46 279.54 413.51 280.02 413.67 280.4 413.38 280.54 413.13 280.51 412.93 280.33 412.31 280.11 411.16 280.94 410.26 281.34 409.6 281.79 409.2 281.62 408.84 281.33 408.55 281.01 407.96 280.47 408.12 280.06 408.02 279.86 407.84 279.72 407.64 279.67 407.46 279.57 407.32 279.33 407.3 278.88 407.25 278.37 407.57 278.15 407.71 277.87 408.03 277.79 407.63 276.99 407.36 276.2 407.61 275.78 407.72 275.35 407.67 275.28 407.68 274.76 407.5 274.5 407.74 274.13 408.09 273.85 408.43 273.8 408.14 273.41 408.02 273.16 407.76 272.53 407.71 271.92 408.09 271.32 408.33 270.72 409.37 270.79 410.11 270.91 410.62 270.89 411.1 270.89 411.46 270.61 410.06 269.39 409.68 268.84 408.78 268.27 407.26 267.94 406.02 267.83 405.19 268.13 404.51 268.42 403.21 268.46 402.37 268.93 401.69 270.1 400.93 270.56 400.85 271.38 401.16 271.63 401.16 271.1 401.52 270.9 401.79 270.97 401.35 271.91 400.17 272.45 399.17 272.82 398.42 273.14 397.56 273.53 397.21 273.87 397.04 274.28 396.78 274.64 396.57 275.12 396.61 275.38 396.89 275.86 396.5 276.34 396.22 276.58 395.67 277.42 394.54 278.11 393.68 278.8 393.31 280.14 393.1 280.62 393.29 281.13 393.91 281.26 394.31 281.62 394.12 281.82 393.02 281.65 389.34 280.28 387.3 279.97 385.37 279.94 382.79 280.67 379.99 279.86 377.72 279.7 376.49 279.7 373.42 279.94 371.16 280.46 366.04 281.96 364.89 281.86 363.58 282.18 363.24 282.21 362.84 282.23 363.03 281.92 363.19 281.73 363.52 281.23 363.77 280.48 364.3 280.02 365.02 280.68 365.11 280.86 365.27 281.03 365.48 280.82 365.54 280.71 365.95 280.51 366.36 280.36 366.73 280.23 367.5 279.78 368.62 279.2 369.1 279.01 369.68 278.31 370.09 278.39 370.13 278.94 370.03 279.34 370.23 279.38 370.39 278.94 370.37 278.45 370.97 278.59 371.19 278.43 370.45 278.17 370.67 277.69 370.76 277.39 370.69 277.23 370.08 276.61 369.62 276.33 369.28 276.46 368.74 276.29 368.15 276.12 367.76 276.48 367.42 276.36 367.33 276.83 367.28 277.31 366.82 277.47 366.83 276.95 366.47 277.03 366.04 276.86 365.55 276.84 365.03 276.94 364.67 277.16 364.29 276.93 363.72 277.12 363.17 277.05 362.89 276.97 362.48 276.48 362.31 276.33 361.83 275.89 361.35 275.71 361.46 275.05 361.98 274.02 361.88 273.35 361.64 273.67 361.32 274.36 360.84 274.97 360.65 275.35 360.52 275.82 360.26 277.16 360.54 277.48 360.81 277.93 361.47 278.21 361.7 278.77 361.69 279.2 361.02 279.15 360.19 278.83 359.29 278.38 358.72 278.09 358.43 277.76 358.39 277.34 358.65 276.86 358.75 276.42 358.95 275.99 358.94 275.6 358.73 275.09 358.4 274.71 358 274.69 357.87 274.08 357.84 273.47 357.86 272.99 357.89 272.56 358.14 272.12 358.41 271.67 358.75 271.2 358.98 270.74 359.34 270.28 359.41 269.58 359.49 269.11 359.13 269 358.75 269.81 358.54 270.39 358.42 269.84 358.39 269.47 358.06 269.38 358.3 270.57 357.62 270.7 357.52 270.15 357.27 270.15 357.23 270.78 356.73 270.88 356.05 270.73 355.87 270.8 355.37 270.7 354.23 271.38 353.67 271.81 353.43 272.2 353.4 272.36 353.26 272.61 353.24 272.74 353.3 272.88 353.73 272.93 353.32 273.21 353.39 273.67 353.16 274.25 352.56 275.17 351.25 276.54 350.47 277.42 350.28 278.57 350.13 279.07 350.08 279.6 350.13 279.73 350.4 280.14 350.51 280.23 350.77 280.36 350.75 280.66 350.63 281.01 350.6 281.28 350.89 281.63 351.33 281.78 352.46 281.79 352.99 281.91 353.4 282.2 353.75 282.56 354.13 282.86 356.06 283.91 357.38 284.37 357.66 284.61 357.93 284.52 358.28 284.53 358.63 284.62 358.88 284.79 359.06 285.09 359.1 285.36 359.18 285.61 359.43 285.86 359.76 285.96 360.04 285.93 360.27 285.95 360.48 286.21 360.52 286.49 360.29 287.44 359.97 287.31 359.68 287.28 359.42 287.37 359.22 287.61 359.34 287.78 359.53 287.93 359.78 288.01 360.11 287.98 359.71 288.3 359.56 288.46 359.43 288.67 359.63 288.94 359.8 289.37 359.86 289.84 359.74 290.24 359.5 290.41 358.59 290.7 358.2 290.77 357.76 290.74 357.14 290.6 356.65 290.37 356.6 290.09 356.98 289.97 357.52 290.07 358.05 290.25 358.36 290.44 358.3 290.27 358.26 290.03 358.2 289.89 358.53 290.09 358.73 289.54 358.48 289.2 357.99 289.07 357.48 289.19 357.54 289.37 357.54 289.45 357.5 289.53 357.48 289.72 356.6 289.19 356.17 289.49 355.38 289.63 354.78 289.52 354.93 289.11 355.32 288.59 354.89 288.51 354.11 288.72 353.43 289.03 353.9 289.15 353.87 289.45 353.55 289.75 352.73 290.05 352.35 290.3 351.95 290.35 351.48 289.89 351.33 290.05 351.22 290.12 351.16 290.21 351.13 290.44 350.42 290.12 350.16 290.09 350.03 290.39 349.89 290.62 349.73 290.77 349.96 291.2 349.65 291.22 348.85 290.96 347.7 291.61 347.43 291.85 346.6 291.85 345.38 292.37 344.41 293.14 344.36 293.87 344.65 294.08 344.86 294.17 344.92 294.31 344.78 294.66 344.65 294.79 344.44 294.9 344.21 294.98 344.01 295.02 343.74 294.9 343.43 294.4 343.22 294.31 343.05 294.44 342.64 294.99 342.34 295.17 342.34 295.37 342.71 295.36 342.99 295.46 343.16 295.66 343.22 295.99 343.68 296.38 343.91 296.66 343.83 296.79 343.78 296.93 343.8 297.62 343.75 297.84 343.37 297.98 343.08 297.84 342.86 297.55 342.69 297.28 342.35 297.59 341.99 297.84 341.99 298 342.57 298.09 342.76 298.43 342.6 298.69 342.15 298.52 342.03 298.98 341.84 299.14 340.96 299.26 340.85 299.33 340.65 299.51 340.39 299.84 340.24 299.92 339.96 299.94 339.42 299.9 338.5 301.04 337.16 303.94 336.56 305.17 336.48 305.26 336.23 306.02 335.74 306.29 335.63 306.72 335.11 306.94 335.15 307.28 335.69 307.56 335.34 307.96 334.48 308.73 334 308.89 333.76 309.21 332.3 309.61 331.82 309.83 331.53 310.08 331.14 310.65 331.33 311.15 331.31 311.47 330.86 311.37 330.56 311.67 330.4 311.2 330.83 310.77 330.7 310.43 328.2 310.2 327.41 310.09 323.63 308.9 322.45 308.65 321.54 308.05 321.24 307.83 320.98 307.54 320.96 307.18 321.1 306.9 320.81 306.43 320.66 306.28 320.52 306.23 320.24 305.99 319.81 305.92 319.44 305.56 319.84 304.97 320.77 304.86 321.36 304.79 321.09 304.47 319.78 303.65 319.28 303.46 319.04 303.13 318.58 303.18 317.81 302.73 317 302.71 316.93 302.28 316.07 301.87 315.48 301.26 314.95 300.3 314.07 299.86 313.59 299.94 312.7 300.05 312.53 300.19 312.6 299.93 312.73 299.77 312.49 299.64 312.67 299.52 313.05 299.52 313.03 299.2 312.81 298.89 313.2 298.59 313.62 298.28 313.46 298.17 313.01 298.16 312.97 297.68 313.39 297.31 313.93 297.27 314.31 297.14 314.96 296.85 315.17 296.46 315.2 296.08 314.96 295.86 314.45 295.61 313.88 295.41 313.45 295.37 313.97 294.49 314.04 294.45 314.25 294.38 314.33 294.31 314.38 294.19 314.38 293.96 314.18 293.58 314.84 293.56 315.83 293.61 315.9 293.26 315.64 292.84 315.28 292.31 314.84 292.33 314.5 291.25 314.1 290.88 313.4 290.42 312.59 290.23 312.85 289.76 313.72 288.93 316.39 288.31 317.61 287.42 318.25 286.89 319.24 286.08 320.11 285.09 320.6 284.65 320.64 284.05 320.61 283.77 321.07 283.65 321.28 283.41 321.52 283.2 321.67 282.76 321.69 282.2 321.71 281.44 321.49 280.8 321.39 280.17 321.63 279.32 321.24 279.47 320.82 279.59 320.36 279.39 319.79 278.89 319.18 278.93 318.39 278.97 318.4 279.63 317.54 279.7 317.57 279.09 316.68 279.35 317.25 280.38 316.44 280.26 316.27 279.7 315.8 279.76 315.75 280.37 313.88 280.65 313.07 280.97 312.2 281.04 311.45 280.6 310.49 280.63 310 280.56 309.4 279.95 308.65 279.69 308.15 279.33 306.74 278.56 305.89 278.32 304.91 277.65 304.45 277.4 303.21 277.15 299.89 277.4 299.71 277.36 299.57 277.27 299.43 277.23 299.27 277.31 299.14 277.4 298.98 277.49 298.81 277.55 298.66 277.58 298.32 277.55 298.06 277.45 297.92 277.25 297.94 276.88 297.77 276.92 297.61 277.01 297.48 277.14 297.43 277.31 297.4 277.52 297.32 277.55 297.21 277.52 297.07 277.58 296.41 278.33 296.19 278.46 295.82 278.44 295.55 278.3 295.33 278.15 295.12 278.09 294.79 278.19 294.51 278.41 294.37 278.69 294.42 278.98 293.71 279 292.42 278.72 291.69 278.65 290.99 278.38 290.68 278.39 290.89 278.81 291.15 278.91 292.48 279.16 292.28 279.21 291.79 279.27 291.61 279.33 291.09 279.94 290.98 280.05 290.77 280.11 290.36 280.35 289.9 280.43 289.7 280.5 289.31 280.74 289.48 280.85 289.69 280.89 289.94 280.85 290.19 280.74 289.87 281.31 289.12 281.76 288.22 282.05 287.47 282.16 287.1 282.05 286.54 281.56 286.06 281.45 285.17 281.46 284.78 281.53 284.13 281.86 283.69 282.01 283.39 282.25 283.5 282.68 283.84 282.84 284.22 282.6 284.91 281.96 285.34 281.83 285.81 281.76 286.23 281.85 286.5 282.16 286.49 282.61 286.18 282.9 285.77 283.13 285.45 283.38 285.51 283.47 285.54 283.52 285.63 283.74 284.89 283.52 284.46 284.09 284.13 284.93 283.68 285.51 281.7 285.21 280.74 285.23 280.86 285.86 280.03 285.72 279.68 285.19 279.38 284.56 278.73 284.1 278.55 284.19 278.39 284.07 278.27 283.83 278.21 283.54 278.03 283.74 277.61 283.59 277.22 283.74 276.82 283.98 276.08 284.21 274.94 284.71 274.68 284.88 274.61 285.06 274.44 285.2 274.24 285.28 273.76 285.36 273.58 285.46 273.45 285.58 273.29 285.67 271.7 286.21 272.71 285.23 273.04 284.69 272.5 284.45 272.22 284.52 271.66 284.84 271.35 284.96 270.68 284.95 270.39 285.08 270.28 285.51 270.47 285.67 Z M 539.68 36.01 540.08 36.16 541.24 36.17 541.72 36.27 540.81 36.5 539.68 36.33 537.56 35.75 537.66 35.57 538.14 35.56 538.73 35.64 539.3 35.79 539.68 36.01 Z M 587.77 55.83 588.1 55.86 588.95 56.05 589.25 56.18 589.08 56.41 588.87 56.51 588.3 56.51 588.03 56.62 587.58 57.12 587.24 57.23 586.26 57.39 586.01 57.5 585.63 57.81 585.35 57.87 584.6 57.76 584.22 57.82 584.02 57.98 583.87 58.21 583.63 58.48 582.95 58.97 582.76 59.18 582.6 59.46 582.37 60.09 582.23 60.39 582.07 60.59 581.34 61.28 581.68 61.44 581.38 61.5 580.87 61.47 580.34 61.36 579.67 61.05 579.24 61.1 578.43 61.28 575.82 61.32 575.25 61.54 574.69 61.94 573.99 62.15 572.01 62.38 571.6 62.49 571.27 62.7 571.11 63.05 571.2 63.51 571.53 63.61 571.96 63.61 572.37 63.74 572.13 63.97 571.88 64.08 570.9 64.15 570.82 64.25 570.78 64.42 570.6 64.63 569.99 64.91 569.36 64.93 568.13 64.63 568.62 65.26 568.75 65.54 568.66 65.88 568.41 66.05 568.05 66.14 566.34 66.34 565.47 66.31 564.68 66.08 563.99 65.6 563.95 65.35 564.01 65.03 563.94 64.75 563.46 64.63 563.16 64.62 563 64.59 562.87 64.58 562.67 64.63 562.49 64.75 562.22 65.09 562.04 65.16 561.82 65.3 561.55 65.62 561.34 66 561.25 66.31 561.4 66.67 561.76 66.95 562.17 67.2 562.48 67.46 561.41 67.73 557.74 67.09 555.75 67.22 555.09 67.5 554.29 67.4 552.38 66.9 552.17 66.77 551.93 66.56 551.82 66.34 551.72 66.05 551.55 65.8 551.22 65.69 550.65 65.71 547.05 66.39 543.42 67.67 539.42 69.79 536.95 72.02 533.06 74.49 531.43 75.98 528.16 79.79 525.61 83.28 525.17 84.36 524.99 85.58 525.29 87.04 525.33 87.62 525.28 88.15 525.15 88.74 524.44 90.82 524.15 91.35 523.46 91.83 523.14 92.98 522.85 93.33 522.45 93.22 521.86 92.88 521.33 92.47 521.1 92.2 520.84 91.73 520.25 91.21 519.6 90.76 515.61 88.78 510.41 87.41 504.98 85.04 502.76 84.51 498.16 82.06 496.65 80.9 495.25 79.66 492.55 79.38 490.45 78.37 489.04 77.13 488.61 76.95 488.07 76.84 486.24 76.07 483.9 75.62 481.6 75.66 479.36 76.03 476.23 76.98 471.98 79.45 471.27 79.69 470.76 80.06 470.46 80.14 470.15 80.17 469.85 80.24 469.57 80.35 467.59 81.41 467.12 81.79 465.67 83.36 465.26 83.65 464.97 83.74 464.65 83.78 464.33 83.76 464.01 83.65 463.84 83.51 463.62 83.26 463.48 83.03 463.59 82.93 464.6 83.09 464.83 83.03 464.9 82.75 464.58 82.57 463.87 82.41 463.35 82.1 463.13 81.91 462.98 81.7 462.7 80.67 458.39 76.98 457.17 76.6 456.57 76.58 454.89 76.79 453.04 76.56 452.4 76.6 451.29 76.98 450.25 77.65 449.32 78.5 447.9 80.36 447.35 81.38 446.95 82.48 446.77 83.65 447.03 84.81 447.8 85.47 450.43 86.54 451.26 87.04 453.16 88.61 453.64 88.77 454.23 88.71 455.22 88.46 456.86 88.35 457.35 88.24 457.87 88.05 459.42 88.86 459.82 89.57 461.05 90.88 461.48 91.2 462.45 91.7 462.88 92.02 464.58 93.7 465.04 94 465.53 94.21 466.1 94.34 466.77 94.39 467.38 94.5 467.98 94.78 469.93 96.15 470.38 96.64 470.12 96.86 468.93 96.99 468.36 97.15 467.91 97.38 466.35 98.58 465.4 98.88 464.21 98.63 462 97.7 460.71 97.38 459.46 97.38 458.3 97.91 457.73 98.02 457.49 97.66 457.7 97.29 458.1 97.05 458.38 96.79 458.23 96.33 457.76 96 457.14 95.86 456.51 95.93 456.02 96.24 455.76 96.69 455.36 97.79 455.06 98.26 453.54 98.87 453.28 99.06 452.99 99.23 451.62 99.52 451.17 99.68 450.67 100.62 450.93 102.7 450.65 103.54 449.83 104 446.59 104.79 446.2 105.04 445.73 105.43 445.34 105.93 445.18 106.46 444.91 106.88 444.29 106.81 443.07 106.37 442.79 106.38 442.35 106.52 442.11 106.56 441.81 106.47 441.15 106.1 440.87 106.02 440.52 105.81 440.26 105.33 439.89 104.26 439.11 102.78 439.02 102.23 439.13 101.68 439.62 100.87 440.04 99.27 441.36 97.65 441.67 96.6 441.78 96.49 442.35 96.54 442.56 96.51 442.79 96.26 442.87 96.03 442.91 95.45 442.89 95.3 442.73 95.08 442.72 94.93 442.82 94.8 443 94.69 443.26 94.58 443.32 94.28 443.34 93.86 443.43 93.7 443.27 93.29 443.12 92.8 443.09 92.32 443.26 91.93 442.41 91.2 441.1 89.43 440.24 88.77 437.67 87.91 437.2 87.46 437.17 87.35 437.04 87.23 436.54 86.47 436.3 86.35 435.51 86.12 434.35 85.42 434.07 85.14 433.82 84.51 433.56 83.49 433.68 82.99 433.99 82.47 435.07 81.15 435.34 80.59 435.67 79.42 435.66 78.27 435.24 76.35 435.51 75.37 436.37 74.43 437.41 74.08 439.89 73.97 440.51 73.85 440.92 73.64 441.99 72.62 442.24 72.49 442.5 72.41 442.81 72.39 443.03 72.28 443.24 72.03 443.9 71.03 444.25 70.66 444.68 70.55 445.26 70.89 445.85 71.62 446.24 71.92 446.77 72.02 447.33 71.7 447.5 71.1 447.55 70.51 447.74 70.25 448.21 70.04 448.58 69.56 449.23 68.51 449.64 68.13 451.39 66.84 452.47 66.29 452.93 65.88 453.08 65.38 452.82 65.01 452.44 64.61 452.24 64.02 452.06 63.66 450.82 62.34 449.97 61.66 448.99 61.08 448.22 60.37 448 59.34 448.79 57.42 450.06 57.44 450.69 57.34 451.17 57.07 451.31 56.84 451.39 56.56 451.49 56.32 451.7 56.18 452.05 56.21 452.38 56.4 452.65 56.61 452.85 56.7 453.29 56.84 455.49 58.04 455.95 58.36 456.72 59.09 457.25 59.4 459.1 60.04 459.36 60.24 459.74 60.62 460 60.76 460.35 60.83 462.99 60.53 464.94 59.95 465.53 59.9 465.81 60.03 465.55 60.37 465.35 60.82 465.8 61.28 466.07 61.35 467.03 61.44 468.09 61.77 468.72 61.86 469.26 62.11 469.58 62.16 470.05 62.14 470.4 62.09 471.08 61.81 473.05 60.71 474.77 59.34 475.45 58.59 476.12 57.61 476.55 56.48 476.54 55.3 476.21 54.61 474.77 53 474.49 52.32 474.55 51.82 474.86 51.37 475.3 50.9 474.82 49.89 474.59 49.65 474.67 49.17 474.08 48.04 473.91 47.46 474.07 46.98 474.44 46.36 475.13 45.44 475.57 45.13 476.16 44.84 476.75 44.64 477.85 44.52 478.35 44.38 478.81 44.16 480.27 43.28 481.06 42.58 481.7 41.67 482.17 40.5 482.38 39.43 482.46 38.37 482.08 32.96 482.35 32.04 484.44 29.17 485.59 24.73 485.7 23.58 485.37 20.41 484.61 17.32 483.79 15.53 480.31 10.15 480.01 9.06 480.24 7.92 480.39 7.74 480.91 7.29 481.12 7.04 481.24 6.77 481.29 6.52 481.37 6.3 481.92 5.61 481.95 5.19 481.66 4.38 481.61 3.98 481.67 3.55 481.89 3.14 482.35 2.8 482.64 2.96 482.81 3.16 482.88 3.44 482.89 3.78 483.03 4.04 483.34 4.04 483.94 3.87 485.13 3.76 486.4 3.52 487.28 3.06 487.56 2.99 487.73 2.86 487.78 2.55 487.78 2.2 487.82 1.93 488.21 1.51 488.87 1.12 489.53 1 489.92 1.26 490.36 2.02 490.62 2.33 490.99 2.46 491.4 2.66 492.39 4.04 493.42 4.81 495.65 6 496.62 6.67 504.8 13.9 506.73 16.85 507.15 17.36 508.05 17.8 509.29 19.36 514.26 23.44 515.09 23.76 516.16 25 517.74 25.82 519.69 27.31 521.9 28.58 522.42 28.71 522.83 28.86 523.8 29.64 524.27 29.93 525.38 30.14 525.67 30.28 526.11 31.05 526.13 31.18 526.83 31.78 527.06 31.92 530.84 33.59 536.6 35.21 536.6 35.39 534.51 35.2 534.13 35.39 534.25 35.56 534.86 36.02 535.01 36.19 535.36 37.16 535.62 37.05 535.72 36.97 536.1 37.25 536.42 37.41 536.77 37.49 540.54 37.54 540.74 37.6 541.47 36.99 541.91 36.74 542.32 36.63 545.41 36.76 546.28 37.06 546.76 37.35 546.75 37.44 546.42 37.49 545.95 37.69 545.6 38.02 545.06 39.27 545.9 39.55 546.27 39.57 546.64 39.43 546.91 39.17 547.19 38.79 547.42 38.35 547.51 37.96 547.87 37.21 548.59 37.01 549.12 37.31 548.92 38.04 549.24 38.81 549.5 39.13 549.89 39.27 550.11 39.46 550.53 40.3 550.77 40.5 551 40.59 552.1 41.2 552.51 41.34 553.41 41.55 557 42.01 561.38 42.27 562.6 42.09 563.71 41.56 566.7 39.2 569 37.24 569.29 36.94 571.11 36.11 572.33 35.18 572.8 35.05 573.23 34.79 574.48 33.09 575.49 32.4 576.01 31.95 576.23 31.43 576.34 31.29 576.58 31.18 576.82 31.2 577.03 31.7 577.48 32.29 577.64 32.57 577.6 33.68 577.04 34.64 575.51 36.11 575.22 36.64 574.97 37.89 574.74 38.29 572.41 40.46 571.76 41.29 571.19 42.21 570.77 43.14 571.03 43.61 570.87 44.14 570.58 44.63 570.34 45.2 569.97 45.58 569.88 45.87 569.9 46.21 569.97 46.41 571.03 48.13 571.39 48.52 573.05 49.83 573.38 50.18 573.66 50.63 573.86 51.14 573.93 51.7 574.02 51.9 574.39 52.15 574.53 52.56 574.84 53.19 575.52 55.36 576.06 56.35 576.93 57.23 578.16 57.93 577.34 58.03 575.74 57.01 574.99 56.88 574.74 57.08 574.69 57.37 574.84 57.64 575.25 57.76 575.71 57.83 576.15 58 576.29 58.17 575.87 58.28 576.31 58.68 577.07 58.96 577.91 59.12 580.09 59.28 580.69 59.49 581.34 59.9 581.46 59.58 581.24 59.39 580.93 59.18 580.81 58.83 580.98 58.65 581.95 58.03 583.01 57.15 583.34 56.97 584 56.84 584.34 56.7 584.5 56.53 584.59 56.35 584.73 56.17 585.05 56.02 585.42 55.96 586.63 56.02 586.85 55.96 587.18 55.71 587.33 55.65 587.51 55.68 587.62 55.74 587.7 55.8 587.77 55.83 Z M 23.53 544.06 24.04 543.97 25 544.1 25.99 544.38 26.61 544.68 26.65 545.35 26.12 546.24 25.03 547.49 24.47 547.53 21.76 546.9 20.16 546.8 19.76 546.51 20.16 545.82 20.26 545.89 20.35 545.94 20.53 546.01 20.76 545.68 21.03 545.81 21.33 546.02 21.67 545.91 21.82 545.66 21.95 544.76 22.26 543.82 22.3 543.61 22.38 543.38 22.56 543.34 22.76 543.44 22.93 543.6 23.53 544.06 Z M 2.66 541.94 3.01 542.06 3.06 542.33 2.87 542.62 2.55 542.83 2.28 542.74 1.24 542.83 1.01 542.71 1 542.44 1.17 542.15 1.45 541.97 1.77 542.02 2.66 541.94 Z M 36.75 539.13 36.83 539.45 36.69 539.71 36.49 539.92 36.24 540.38 35.33 541.59 34.99 542.69 34.82 543.8 34.51 544.78 33.74 545.47 32.84 545.57 31.9 545.34 31.43 544.86 31.97 544.24 31.7 544.06 31.6 543.76 31.45 543.48 31.01 543.36 30.57 543.29 30.29 543.12 30.31 542.94 30.74 542.83 30.91 542.65 31.18 542.22 31.28 542.12 31.61 542.07 31.71 542.2 31.75 542.39 31.89 542.48 32.09 542.66 32.31 542.78 32.61 542.83 33.21 542.82 33.49 542.76 33.74 542.64 34.01 542.28 34.21 541.82 34.47 541.41 34.89 541.24 35.19 541.01 36.02 539.48 36.37 539.04 36.55 538.96 36.75 539.13 Z M 474.43 533.84 474.63 534.14 474.42 534.25 474.04 534.28 473.73 534.36 473.47 534.63 473.01 535.26 472.68 535.45 472.68 534.59 472.76 534.24 472.93 533.93 473.25 533.78 473.72 533.72 474.18 533.75 474.43 533.84 Z M 63.95 534.03 64.39 534.12 64.95 534.37 65.43 534.68 65.63 534.98 65.41 535.18 64.88 535.31 63.86 535.45 61.7 535.48 60.65 535.28 60.6 534.81 60.72 534.5 61.04 533.05 61.06 532.12 60.96 531.83 60.68 531.38 60.74 531.4 61.05 531.45 61.32 531.58 61.45 531.67 61.56 531.78 61.76 532.09 62.07 532.8 62.26 533.13 62.39 533.29 63.2 534.02 63.39 534.08 63.95 534.03 Z M 214.77 505.94 215.33 506.37 215.16 506.49 215 506.67 214.87 506.91 214.82 507.17 214.7 507.38 214.42 507.38 214.14 507.31 213.66 507.12 213.68 506.8 213.9 506.43 214.28 506.01 214.41 505.92 214.56 505.89 214.77 505.94 Z M 100.52 493.68 100.52 493.92 100.45 494.18 100.31 494.41 100.15 494.57 100.1 494.68 100.13 494.79 100.14 494.87 99.97 494.93 99.81 494.9 99.63 494.8 99.49 494.65 99.43 494.49 99.23 494.13 98.75 493.94 98.2 493.81 97.78 493.59 97.63 493.24 97.86 492.98 98.3 492.8 98.76 492.71 99.03 492.68 99.48 492.75 99.93 492.96 100.3 493.28 100.52 493.68 Z M 495.9 486.12 495.6 486.17 495.45 486.31 495.44 486.53 495.57 486.82 495.05 486.48 494.51 485.7 493.8 484.19 493.96 484.17 494.08 484.21 494.33 484.35 494.43 484.56 494.62 484.68 494.88 484.72 495.2 484.7 495.2 484.87 494.9 485.08 494.94 485.27 495.2 485.39 495.57 485.4 495.57 485.59 495.45 485.68 495.43 485.72 495.44 485.79 495.38 485.93 495.61 485.83 495.72 485.82 495.8 485.9 495.9 486.12 Z M 139.78 482.24 139.67 482.34 139.59 482.49 139.58 482.67 139.69 482.86 139.78 483.08 139.67 483.28 139.5 483.44 139.42 483.55 139.06 484.19 139.04 484.28 139.06 484.61 139.02 484.71 138.92 484.7 138.81 484.67 138.73 484.7 137.9 485.96 137.36 486.45 136.68 486.64 135.53 486.7 135.19 486.82 135 486.98 134.77 487.26 134.58 487.56 134.5 487.79 134.57 487.87 134.72 487.9 134.85 487.99 134.83 488.23 134.75 488.42 134.66 488.49 134.52 488.51 133.9 488.71 133.42 488.78 132.94 488.74 132.54 488.58 132.04 489.17 130.69 490.43 130.38 490.6 130.07 490.62 129.84 490.73 129.75 491.13 129.57 491.22 127.78 491.23 127.5 491.27 127.29 491.38 126.96 491.8 127.07 492 127.37 492.11 127.63 492.28 127.76 492.61 127.85 493.35 127.97 493.68 128.25 494.01 128.79 494.42 129.04 494.77 128.58 494.89 128.07 494.74 127.54 494.52 127.01 494.4 126.69 494.6 125.38 496.73 125.22 497.16 125.15 497.64 125.33 497.97 125.74 497.96 126.22 497.86 126.57 497.93 126.33 498.46 125.88 499.13 125.34 499.6 124.8 499.5 124.46 499.75 124.04 500.42 123.65 500.56 122.15 500.56 122.29 499.6 121.74 497.81 121.8 497.21 122.32 497.27 122.82 496.8 123.2 496.14 123.4 495.63 123.86 495.68 124.2 495.29 124.4 494.78 124.47 494.49 124.38 493.95 124.02 492.82 123.92 492.28 123.97 491.68 124.2 491.42 124.62 491.37 125.48 491.38 125.8 491.35 126.1 491.22 126.22 490.95 126.31 490.95 126.7 490.31 126.75 490.17 127.61 489.73 128.6 489.45 129.5 489.05 130.08 488.23 130.14 487.77 129.97 487.44 129.58 487.24 128.39 487.07 128.16 486.78 128.14 486.39 128.17 485.93 127.97 485.08 127.97 484.87 128.16 484.83 129.04 484.87 130.19 484.81 130.78 484.92 131.13 485.24 131.09 485.46 130.91 485.68 130.81 485.94 130.99 486.3 131.22 486.41 131.49 486.41 132.58 486.15 133.96 485.4 133.76 484.96 133.96 484.65 135.02 483.92 135.14 483.78 135.27 483.26 135.45 483.16 135.63 483.13 135.71 483.04 135.93 482.66 136.91 482.14 137.13 481.8 137.23 481.33 137.64 480.51 137.66 479.95 139.62 481.82 139.78 482.24 Z M 495.9 474.66 496.25 474.53 496.62 474.5 496.93 474.6 497.13 474.86 496.97 475.74 496.56 475.99 496.04 475.71 495.57 475.02 496.45 475.38 496.35 475.15 496.22 474.94 496.07 474.77 495.9 474.66 Z M 149.11 465.33 149.16 465.42 149.17 465.44 149.18 465.45 149.27 465.49 149.03 465.82 148.32 466.2 147.96 466.48 147.56 467.14 147.31 467.37 146.99 467.26 146.86 467.66 146.65 467.72 146.41 467.67 146.2 467.72 145.87 467.94 145.49 468.01 145.12 467.93 144.79 467.72 144.64 467.46 144.6 467.14 144.63 466.81 144.69 466.58 144.82 466.35 144.94 466.29 145.15 466.28 145.54 466.22 146.53 466.35 147.01 466.34 147.43 466.13 147.82 465.85 149.11 465.33 Z M 156.52 456.18 156.79 456.39 157.14 456.58 157.44 456.82 157.57 457.15 157.43 457.58 156.81 458.32 156.54 458.84 156.2 459.15 155.79 459.4 155.44 459.51 154.99 459.37 154.8 459.01 154.73 458.63 154.66 458.46 154.09 458.31 154 457.95 154.22 457.24 153.69 455.82 153.83 455.51 153.94 455.09 154.09 454.11 154.23 454 154.63 453.88 155.44 453.53 155.92 454.04 156.22 455.52 156.52 456.18 Z M 164.43 448.25 165.17 448.15 165.73 448.57 165.81 449.1 165.13 449.3 164.68 448.9 164.61 448.85 164.54 448.74 164.39 448.77 164.27 448.87 164.27 448.93 164.28 449.04 164.14 449.23 163.98 449.34 163.9 449.21 163.84 449.18 163.59 448.84 163.57 448.77 163.28 448.75 162.73 448.84 162.5 448.77 162.41 448.59 162.36 447.96 162.31 447.72 161.61 446.82 161.45 446.43 161.84 446.3 162.66 446.3 162.5 446.8 162.78 446.93 163.73 446.83 163.59 447.02 163.39 447.23 163.24 447.44 163.28 447.62 163.59 447.86 164.2 448.1 164.43 448.25 Z M 183.29 441.72 183.3 442.16 183.06 442.81 182.7 443.44 182.39 443.84 181.95 444.03 181.39 444 180.29 443.68 181.88 442.5 182.98 441.95 183.29 441.72 Z M 174.99 439.44 175.09 439.61 175.24 439.75 175.35 439.91 175.34 440.14 175.21 440.29 175.02 440.3 174.81 440.27 174.64 440.3 174.33 440.5 173.24 440.9 172.88 440.97 172.72 441.02 172.66 441.13 172.62 441.31 172.51 441.47 172.28 441.55 171.75 441.79 171.04 442.88 170.52 443.13 170.43 443.23 169.63 443.93 169.33 444.06 168.66 443.82 168.31 443.84 168.5 444.19 168.31 444.48 168.1 444.66 167.87 444.79 167.6 444.9 167.9 445.12 168.55 445.52 168.83 445.77 167.48 446.55 167.25 446.58 167.13 447.12 166.8 447.14 166.34 447.02 165.85 447.19 166.17 447.36 166.43 447.72 166.56 448.08 166.47 448.25 166.21 448.15 165.48 447.53 164.17 446.75 164.01 446.42 164.04 446.06 164.02 445.7 163.73 445.42 163.39 445.8 163.04 445.81 162.15 445.42 161.27 445.25 160.89 445.14 160.55 444.9 160.55 444.74 160.78 444.63 160.99 444.57 161.21 444.59 161.44 444.74 162.17 444.53 163.01 444.73 163.77 444.76 164.27 444.02 163.33 444.01 162.96 443.86 162.66 443.49 163.01 443.29 163.29 443.06 163.59 442.87 164.21 442.76 164.4 442.67 164.93 442.32 165.3 441.97 165.32 441.91 165.99 441.85 166.59 441.89 167.08 441.77 167.43 441.21 167.92 441.38 168.4 441.24 168.79 440.91 169.02 440.49 169.2 440.76 169.47 440.91 169.77 441.04 170.08 441.21 170.52 440.26 171.22 439.73 172.9 438.91 172.58 439.81 172.65 440.05 173.06 440.14 173.36 440.02 173.62 439.7 174.11 438.91 174.09 438.79 173.99 438.6 173.95 438.39 174.11 438.22 174.48 438.24 174.75 438.6 174.99 439.44 Z M 175.18 408.79 175.98 408.63 176.18 409.03 175.92 409.62 175.34 410.04 175.13 409.44 175.09 409.1 175.18 408.79 Z M 179.77 403.13 179.87 403.85 180.64 404.39 180.51 404.46 180.46 404.55 179 404.42 178.71 404.05 178.4 403.78 178.21 403.18 178.68 402.83 179.3 403.04 179.41 403.02 179.53 403.03 179.65 403.06 179.77 403.13 Z M 199.85 390.29 199.71 391.18 199.14 392.45 198.03 393.43 197.35 393.85 196.56 393.97 195.81 394.07 195 394.11 193.76 393.77 193.49 393.35 193.06 392.42 192.44 391.19 192.25 390.51 192.18 389.78 192.44 389.68 193.39 389.66 193.85 389.06 194.36 388.58 194.51 388.16 195.06 388.17 195.33 387.89 195.97 388.36 197.1 388.71 197.92 389.31 198.92 389.57 199.85 390.29 Z M 209.55 378.32 209.79 378.31 209.81 378.72 210.1 379.36 210.47 379.8 210.04 380.14 210.03 380.96 210.24 381.95 209.59 382.9 209.7 383.41 209.69 384.2 209.53 384.57 209.18 384.77 209.18 385.21 209.12 385.59 208.67 385.75 208.3 385.75 208.06 386.23 207.76 386.57 207.71 387.14 207.36 387.59 207.39 387.98 207.3 388.19 207.52 388.37 207.65 388.67 207.48 388.96 207.43 389.24 207.64 389.63 207.27 389.99 207.24 390.33 206.76 390.28 206.26 390.42 205.81 390.51 205.41 390.78 205.28 391.08 204.88 391.08 204.8 390.82 204.54 390.5 204.62 390.16 204.75 389.7 204.68 389.02 204.44 388.58 204.34 388.06 204.39 387.83 204.66 387.95 204.87 387.99 205.03 387.56 205.67 386.97 206.42 386.01 206.72 385.27 206.95 384.62 206.96 384.24 206.88 383.44 206.75 383.09 206.81 382.84 206.65 382.64 207 382.3 207.35 381.89 207.83 381.16 207.83 380.86 208.2 380.75 208.42 380.18 208.37 379.63 208.91 378.85 209.22 378.54 209.37 378.41 209.55 378.32 Z M 186.44 343.27 187.03 343.28 187.32 343.46 187.5 343.98 187.41 344.28 186.97 345.31 186.81 345.57 186.34 345.67 185.97 345.48 185.79 345.11 185.93 344.68 185.67 344.43 185.47 344 185.36 343.54 185.42 343.17 185.62 343.04 185.9 343.08 186.44 343.27 Z M 193.05 335.36 193.82 335.04 194.25 335 194.55 335.36 193.68 335.84 192.6 338.3 191.82 338.87 191.73 338.74 191.71 338.46 191.73 337.9 191.6 337.61 191.33 337.67 190.85 337.98 189.82 338.03 189.31 338.14 188.73 338.34 188.21 337.67 187.98 337.29 188 336.93 188.13 336.79 188.29 336.73 188.65 336.68 188.88 336.57 189.39 336.06 189.97 335.71 190.35 335.55 191.29 335.29 191.84 334.96 192.04 334.96 192.2 335.07 192.27 335.26 192.36 335.42 192.58 335.43 193.05 335.36 Z M 186.63 334.47 187.38 335.1 187.62 336.17 187.69 338.34 187.75 338.55 187.82 338.71 187.86 338.92 187.79 339.6 187.73 339.8 187.63 339.96 187.41 340.19 187.17 340.33 186.56 340.54 186.44 340.71 185.93 341.7 185.79 341.79 185.21 342.03 185 342.21 184.43 342.84 184.08 343.06 183.46 343.38 182.82 343.61 182.39 343.61 182.36 343.37 182.74 342.03 182.44 342.24 182.16 342.23 181.89 342.19 181.44 342.4 181.43 342.28 181.51 342.03 181.62 341.87 182.41 341.26 182.93 340.98 183.28 340.92 183.59 340.94 183.88 340.89 184.16 340.62 183.9 340.62 183.69 340.59 183.29 340.45 182.73 340.65 182.29 340.43 181.99 339.95 181.87 339.37 181.91 339.09 182.01 338.85 182.17 338.67 182.39 338.52 182.23 338.11 182.36 337.61 182.68 337.1 183.02 336.67 183.29 336.11 183.16 335.6 182.58 334.8 182.91 334.82 183.14 334.95 183.35 335.1 183.62 335.17 183.96 335.11 184.48 334.86 185.15 334.72 185.6 334.56 186.1 334.43 186.63 334.47 Z M 153.68 331.19 154.07 331.61 154.26 331.88 154.26 331.91 154.22 332 153.74 332 153.15 331.97 152.12 332.2 152.06 331.89 151.49 331.74 151.36 331.84 151.14 331.89 151.04 332 150.95 332.27 151.03 332.39 151.15 332.45 151.53 332.83 151.46 333.14 151.41 333.44 150.97 333.82 150.52 333.59 150.02 333 149.41 332.98 148.14 333.05 147.88 333.32 147 332.84 146.54 332.72 146.62 332.3 146.8 332 146.87 331.8 146.99 331.55 147.15 331.36 147.34 331.29 147.37 331.41 147.46 331.96 147.52 332.18 147.54 332.03 147.88 331.34 147.92 331.08 147.93 330.8 147.9 330.53 147.83 330.28 147.76 330.16 147.68 330.06 147.62 329.94 147.61 329.8 147.66 329.66 147.82 329.37 147.6 328.94 147.83 328.58 148.09 328.39 148.56 328.39 148.73 328.7 149.09 329.39 149.23 329.3 149.66 329.12 150.2 329.02 151.13 328.55 151.26 328.25 151.88 327.95 151.97 328.4 151.94 328.59 151.94 328.82 152.38 328.93 152.75 328.99 152.94 329.42 152.75 330.42 153.08 330.8 153.68 331.19 Z M 434.16 319.33 434.73 319.63 435.39 319.81 435.99 320.06 436.38 320.56 436.18 320.87 435.56 321.6 435.31 321.78 434.93 321.77 434.47 321.59 434.07 321.31 433.79 320.75 432.94 319.76 432.84 319.38 433.13 319.07 433.56 318.95 434.16 319.33 Z M 159.32 323.11 159.62 323.25 161.16 322.66 161.5 323.2 161.33 323.66 160.82 323.87 160.33 324.4 159.83 324.46 159.38 324.89 159.18 325.21 159.13 325.6 159.34 326.02 159.32 326.19 159.29 326.48 159.02 326.48 158.55 326.38 158.39 326.7 158.57 326.94 158.57 327.28 158.47 327.49 157.98 327.38 158.02 326.88 157.84 326.34 157.87 325.48 158.03 325.12 157.65 324.52 157.43 324.4 156.52 324.24 156.28 324.15 156.33 323.83 156.76 323.67 157.33 323.31 157.71 323.64 158.2 323.34 157.9 322.8 158.05 321.79 158.48 321.68 158.54 322.32 158.8 322.28 158.96 322.21 158.97 321.7 158.89 321.35 159.01 320.85 159.42 320.67 159.55 320.21 159.34 319.86 159.28 319.58 159.59 318.52 159.83 318.72 159.8 319.19 159.69 319.43 159.6 319.66 159.78 319.88 159.99 320 159.85 320.53 159.68 321 159.44 321.41 159.36 321.89 159.3 322.34 159.32 323.11 Z M 171.09 312.25 171.25 313.39 171.09 313.73 170.74 314.18 170.36 314.49 170.64 314.7 170.33 315.01 170.02 315.15 170.03 315.4 169.69 315.61 169.72 315.99 169.48 316.51 168.28 317.7 167.41 318.22 166.47 318.44 166.01 318.26 165.61 318.19 165.67 317.92 165.8 317.32 166.08 317.7 166.69 318.09 167.09 318.03 167.25 317.82 167.17 317.73 166.98 317.6 166.69 317.56 166.51 317.29 166.62 316.92 166.93 316.65 167.52 316.72 167.3 316.28 167.25 315.74 168.04 315.18 168.14 314.45 168.18 313.86 169.53 313.6 169.87 312.99 170.07 313.08 170.25 313.34 170.67 313.05 170.26 312.77 170.31 312.4 171.09 312.25 Z M 240.18 302.42 240.4 302.62 240.96 302.96 240.93 303.05 240.53 303.12 239.99 303.05 239.17 302.7 238.75 302.77 238.93 302.41 239.28 302.24 239.72 302.25 240.18 302.42 Z M 176.76 302.93 177.36 303.15 177.36 303.5 176.95 303.83 176.35 303.86 175.7 303.87 175.38 304.38 175.34 304.87 175.07 304.79 174.56 304.41 174.21 304.07 174.31 303.68 174.05 303.53 173.69 303.72 173.49 303.37 173.43 302.94 174.2 303.25 174.46 303.29 174.46 303.12 173.78 302.67 173.72 302.15 173.69 301.85 174.24 301.86 174.11 301.42 174.26 300.99 174.46 300.71 174.51 300.42 174.81 300.66 176.53 301.1 176.55 301.3 176.4 301.65 176.41 301.93 176.51 302.19 176.88 302.44 177.29 302.59 177.14 302.63 176.9 302.73 176.76 302.77 176.76 302.93 Z M 239.98 300.47 239.86 300.6 239.73 300.69 239.47 300.82 239.27 300.31 238.88 299.74 238.7 299.13 239.1 298.52 239.72 298.32 240.43 298.39 241.1 298.62 241.58 298.89 242.3 299.77 242.65 299.75 242.99 299.59 243.53 299.24 243.69 299.22 244.07 299.28 244.23 299.24 244.38 299.08 244.44 298.8 244.59 298.7 244.9 298.65 245.58 298.71 245.98 298.7 245.68 298.96 245.13 299.58 244.93 299.61 244.68 299.53 244.05 299.69 243.8 299.82 243.7 300.02 243.66 300.65 243.61 300.91 243.53 301.17 243.23 301.08 242.67 301.09 242.46 301.01 242.35 300.79 242.38 300.55 242.36 300.32 242.1 300.1 241.93 300.29 241.57 300.09 241.41 300.22 241.34 300.49 241.23 300.66 240.91 300.69 240.46 300.56 240.18 300.66 239.98 300.47 Z M 426.35 295.54 426.54 294.72 427.28 294.22 428.13 294.19 428.61 294.79 428.26 295.61 427.57 296.14 426.84 296.18 426.35 295.54 Z M 248.18 295.27 247.59 294.99 246.2 295.04 245.62 294.84 246.1 294.4 246.7 294.09 247.02 293.72 246.68 293.07 246.93 292.79 247.26 292.62 247.6 292.55 247.88 292.56 248.09 292.72 248.02 292.83 247.99 292.95 247.92 293.04 247.74 293.07 247.95 293.38 248.02 293.68 248.04 293.98 248.09 294.31 248.76 294.05 248.84 294.54 248.56 295.15 248.18 295.27 Z M 259.6 291.75 258.69 292.17 258.45 292.01 258.66 291.49 258.83 291.37 259.25 291.27 259.38 291.14 259.4 290.88 259.29 290.71 259.08 290.62 258.84 290.61 259.33 290.09 259.87 289.62 260.39 289.51 260.77 290.09 261.05 290.87 260.95 291.39 260.51 291.78 259.6 291.75 Z M 164.84 289.91 164.95 289.54 165.61 289.57 165.73 289.73 165.62 289.95 165.17 290.13 164.98 290.46 165.06 290.92 165.15 291.21 164.76 291.47 164.45 291.48 164.46 291.63 164.58 291.73 164.51 292.02 164.47 292.43 164.44 292.72 164.37 292.82 164.2 292.86 164.1 293.06 164.09 293.35 163.91 293.79 163.61 293.92 163.55 294.16 163.26 294.34 163.19 294.54 162.87 294.51 162.76 294.67 162.47 294.82 162.36 294.58 162.22 294.54 161.9 294.25 161.7 294.15 161.37 294.3 161.22 294.36 161.18 293.33 161.4 292.74 161.33 292.08 161.44 291.26 161.67 291.08 161.66 290.69 161.84 290.09 161.91 288.98 162.13 288.64 162.59 288.69 162.68 288.86 162.57 289.07 162.56 289.56 162.73 289.56 162.94 289.41 163.18 289.38 163.54 289.19 163.88 289.2 163.76 289 163.72 288.82 164.01 288.81 164.24 288.94 164.58 289.19 164.55 289.7 164.84 289.91 Z M 420.78 286.93 421.02 286.75 421.32 286.45 421.57 286.36 421.61 286.83 421.45 287.65 421.12 288.45 420.71 288.81 420.35 288.33 420.38 288.02 420.65 287.12 420.78 286.93 Z M 311.09 281.47 311.74 281.91 311.79 282.23 311.49 282.56 311.1 282.93 310.9 283.48 310.61 284.11 309.9 284.64 309.29 285.45 308.53 286.34 308.38 287.3 308.34 287.52 308.42 287.83 308.44 288.13 308.87 288.41 308.93 288.87 309.12 289.18 309.75 289.72 309.95 290.16 309.43 290.35 308.69 290.49 308.06 290.82 307.32 291.04 306.75 291.28 305.88 291.94 304.64 292.17 304.05 292.2 304 291.71 303.45 291.5 303.37 291.42 303.66 290.94 303.92 290.61 303 290.84 302.45 290.28 302.21 289.7 302.53 289.34 302.88 288.67 303.44 288.8 303.84 288.63 305.85 285.62 306.5 285.26 306.97 285.02 307.18 284.88 307.33 284.68 307.55 284.24 307.71 284.01 308.03 283.5 309.03 283.07 309.43 282.94 310.07 282.18 310.54 281.62 311.09 281.47 Z M 168.44 281.18 168.7 281.45 169.1 281.76 169.02 281.98 168.96 282.21 168.74 282.86 168.27 283.87 167.15 284.72 166.56 285.47 166.68 286.21 166.1 286.68 166.04 287.06 166.46 286.97 166.91 286.55 166.94 286.74 166.79 287.09 166.68 287.25 166.78 287.68 167.08 287.98 167.29 288.07 167.11 288.42 166.73 288.59 166.55 288.76 166.27 289.2 165.64 289.39 165.15 289.28 164.66 288.75 165.05 288.52 165.67 288.69 165.72 287.96 165.4 287.84 164.93 288.3 164.65 288.28 164.62 287.8 164.64 287.53 164.76 287.22 164.45 287.41 164.19 287.7 164.35 288.13 164.17 288.26 163.8 287.95 163.19 288.06 162.69 287.96 162.85 287.64 163.48 287.61 163.81 287.45 163.84 286.49 163.71 285.97 163.93 285.76 164.18 285.72 164.3 285.78 164.45 285.6 164.8 285.27 164.74 285.11 164.34 285.45 164.02 285.52 163.9 285.23 164.23 284.58 164.64 283.73 165.19 283.34 165.17 283.17 164.73 282.7 164.28 282.81 164.24 282.46 164.6 282.02 164.72 281.59 165.11 280.45 165.46 280.44 166.08 280.45 166.53 280.53 166.84 280.28 167.33 279.75 167.75 279.68 167.55 279.49 167.69 279.24 168.08 279.27 168.39 279.09 168.75 279.09 168.9 279.3 169.16 279.52 169.34 279.72 169.23 280.07 169.08 280.22 168.86 280.33 169.09 280.38 169.34 280.5 169.36 280.77 169.17 281.17 168.95 281.25 168.68 281.12 168.44 281.18 Z M 424.58 277.04 425.08 277.26 425.4 277.65 425.57 278.16 425.62 278.73 425.6 279.37 425.49 279.65 425.21 279.71 424.67 279.7 423.07 279.05 422.86 278.6 422.88 277.38 422.99 276.61 424.13 276.83 424.58 277.04 Z M 259.94 245.32 260.24 245.04 260.78 245.19 261.33 245.53 261.65 245.86 261.28 245.83 260.33 245.86 260.16 245.81 260.03 245.68 259.95 245.5 259.94 245.32 Z M 269.05 238.65 269.43 239.08 269.36 240.35 269.21 240.62 268.87 240.77 268.68 240.47 268.44 240.45 268.21 240.59 267.99 240.77 268.29 240.96 268.39 241.2 268.29 241.44 267.99 241.63 267.8 241.63 266.77 241.46 266.2 241.46 266.04 241.37 264.82 240.5 264.57 240.41 264.44 240.14 264.66 238.55 265 238.06 267.12 236.9 267.14 237.2 267.35 237.32 267.61 237.36 267.84 237.43 267.93 237.52 268.01 237.75 268.08 237.86 268.24 237.96 268.58 238.05 268.71 238.13 268.85 238.28 268.96 238.52 269.05 238.65 Z M 399.93 192.5 400.84 192.57 402.03 192.32 402.91 192.38 402.91 193.39 402.67 193.87 401.61 195.23 401.32 195.71 400.99 196.69 400.63 197.08 397.65 198.7 394.94 199.48 394.38 199.53 394.11 199.49 393.85 199.38 393.66 199.19 393.58 198.94 393.67 198.66 393.88 198.56 395.12 198.35 395.41 198.19 395.53 197.87 395.53 196.71 395.8 196.29 396.63 195.53 396.93 195.15 396.22 194.36 394.5 194.85 394.11 194.09 394.11 193.49 394.18 192.95 394.35 192.46 394.63 191.97 395.7 190.79 396.1 189.97 396.59 189.62 397.08 189.34 397.3 189.06 398.46 188.09 399.14 187.71 400.19 186.24 400.42 186.08 400.71 186.01 401.34 185.99 401.49 186.11 401.48 186.39 401.16 188.09 400.63 189.63 399.54 191.67 399.39 192.15 399.37 192.65 399.52 192.96 399.73 192.95 399.93 192.5 Z M 427.93 85.23 428.33 85.53 428.07 86.05 427.21 87 427.03 87.68 427.01 88.3 426.91 88.89 426.53 89.46 425.53 90.16 425.29 90.07 425.02 89.87 424.87 89.59 424.94 89.3 424.81 89.07 424.76 88.84 424.76 88.32 424.7 88.1 424.44 87.78 424.39 87.53 424.48 87.05 424.72 86.56 425.06 86.16 425.45 85.95 425.75 85.93 426.31 85.8 426.61 85.77 426.92 85.68 427.67 85.3 427.93 85.23 Z M 576.05 50.53 576.9 50.98 577.31 51.27 577.37 51.52 577.05 51.65 576.07 51.85 575.87 52.04 575.69 52.35 575.33 52.47 575.07 52.35 575.16 51.95 575.45 51.71 576.24 51.45 576.58 51.25 573.25 50 575.42 50.33 576.05 50.53 Z M 553.87 41.56 554.04 41.56 553.88 41.57 553.87 41.56 Z M 473.65 9.95 473.86 10.32 473.68 10.58 473.37 10.83 473.21 11.17 473.06 11.29 472.13 11.78 471.69 11.83 471.29 11.74 469.91 11.12 469.09 10.59 468.61 10 468.98 9.5 468.86 9.34 468.72 9.08 468.62 8.97 469.53 8.21 469.85 8.09 470.44 7.97 471.28 8.17 472.13 8.58 472.77 9.07 473.65 9.95 Z M 466.59 2.8 467.01 3 467.13 3.46 466.76 6.1 466.51 6.85 466.15 7.57 465.98 7.22 466.01 7.08 466.15 6.87 465.51 5.95 465.21 5.38 465.09 4.84 465.26 3.6 465.14 3.32 464.38 2.46 464.57 2.35 464.74 2.32 464.88 2.36 464.99 2.47 465.06 2.58 465.41 3.06 465.75 3.07 466.14 2.91 466.59 2.8 Z M 461.89 471.41 461.84 471.01 462 470.9 462.11 471.04 461.89 471.41 Z M 126.21 483.82 126.25 484.55 125.59 484.67 124.9 484.4 124.8 484 125.16 483.86 125.85 483.92 126.21 483.82 Z M 130.98 474.66 131.13 474.66 130.93 475.31 130.48 476 129.87 476.55 129.2 476.77 129.45 476.38 130.77 475 130.98 474.66 Z M 188.16 387.79 188.75 388 189.25 388.43 189.25 388.73 188.69 388.74 188.47 389.03 187.97 389.1 187.47 388.62 187.5 388.29 187.4 388.06 186.96 388.24 186.7 387.87 186.41 387.63 186.15 387.34 186.75 387.32 187.42 387.68 187.71 387.53 188.16 387.79 Z M 294.76 282.86 294.66 283.09 294.72 283.32 294.84 283.59 294.94 283.91 294.8 284.66 294.24 286.03 294.11 285.8 293.87 285.67 293.55 285.63 293.18 285.67 293.18 285.51 293.67 285.44 293.79 285.22 293.56 285.05 293.01 285.16 292.64 285.48 292.37 285.92 292.06 286.29 291.6 286.37 291.71 285.46 291.57 285.18 291.06 284.96 290.58 284.98 290.1 285.13 289.69 285.14 289.47 284.79 289.73 284.62 289.75 284.34 289.71 284.02 289.82 283.74 290.56 283.93 291.19 283.78 292.29 283.21 292.6 283.13 293.52 283.05 294.41 282.86 294.76 282.86 Z M 476.88 548.41 477.06 548.29 477.32 548.31 477.33 548.5 477.26 548.64 477.14 548.68 476.95 548.58 476.88 548.41 Z M 798.68 546.68 798.89 546.54 799 546.65 798.95 546.86 798.81 546.87 798.65 546.81 798.68 546.68 Z M 472.62 517.69 472.3 517.45 472.19 517.11 472.3 516.83 472.65 516.8 472.88 516.98 472.93 517.25 472.84 517.52 472.62 517.69 Z M 215.66 503.98 215.97 503.93 216.47 504.07 216.64 504.34 216.49 504.6 216.35 504.7 216.17 504.71 215.96 504.61 215.69 504.3 215.66 503.98 Z M 111.11 487.33 111.38 487.28 111.63 487.39 111.68 487.65 111.49 487.84 111.24 487.83 110.92 487.88 110.77 487.77 110.92 487.49 111.11 487.33 Z M 142.78 475.8 142.79 476.28 142.63 476.49 142.19 476.47 141.66 476.24 141.54 476.12 141.42 476.07 141.29 475.98 141.29 475.76 141.43 475.72 141.61 475.72 141.79 475.49 142.13 475.31 142.52 475.41 142.71 475.63 142.78 475.8 Z M 495.8 473.28 495.67 472.95 495.7 472.55 495.85 472.26 496.09 472.31 496.18 472.55 496.13 472.84 495.98 473.11 495.8 473.28 Z M 495.96 461.62 495.55 461.28 495.65 461.1 495.9 461.18 495.96 461.62 Z M 493.01 458.6 492.96 458.33 493.05 458.26 493.13 458.36 493.01 458.6 Z M 137.18 454.75 137.23 454.9 137.36 454.99 137.31 455.29 137.07 455.1 137.01 454.69 137.18 454.75 Z M 172.01 414.05 171.9 413.84 172 413.59 172.18 413.48 172.25 413.5 172.32 413.55 172.43 413.56 172.5 413.65 172.62 413.92 172.54 414.22 172.22 414.22 172.01 414.05 Z M 170.37 402.43 170.39 402.26 170.57 402.23 170.77 402.28 170.95 402.39 171.06 402.55 170.98 402.65 170.68 402.75 170.51 402.65 170.37 402.43 Z M 181.06 400.81 181.1 400.9 181.17 400.96 181.17 400.98 180.99 401.12 180.55 401 180.28 400.92 180.02 400.66 179.95 400.62 179.93 400.54 179.97 400.41 180.03 400.32 180.26 400.12 180.17 399.93 180.28 399.91 180.5 399.79 180.63 400.08 180.82 400.37 181.06 400.81 Z M 447.44 387.29 447.69 387.29 447.91 387.44 447.72 387.69 447.41 387.74 447.29 387.56 447.28 387.42 447.44 387.29 Z M 167.81 378.16 167.88 378.11 167.96 378.21 167.84 378.3 167.81 378.16 Z M 181.13 378.2 181.43 378.4 181.47 378.62 181.23 378.86 180.95 379.01 180.65 379.01 180.24 378.84 180.2 378.79 180.19 378.69 180.04 378.47 180.15 378.36 180.35 378.27 180.59 378.08 180.76 378.02 180.96 378.09 181.13 378.2 Z M 440.65 362.82 440.68 362.77 440.71 362.82 440.65 362.82 Z M 440.59 362.8 440.6 362.74 440.64 362.79 440.6 362.82 440.59 362.8 Z M 433.27 336.88 433.29 336.42 433.72 337.18 433.27 336.88 Z M 421.52 306.1 421.44 306.07 421.52 306.08 421.52 306.1 Z M 429.84 300.05 430.01 300.4 429.99 300.56 429.84 300.79 429.51 300.89 429.1 300.84 428.77 300.64 428.73 300.18 429.06 299.78 429.5 299.77 429.74 299.93 429.84 300.05 Z M 423.42 103.77 423.55 103.84 423.65 103.99 423.45 104.22 422.71 104.51 422.59 104.4 422.48 104.05 422.48 103.86 422.58 103.72 422.78 103.71 422.97 103.77 423.42 103.77 Z M 798.5 546.2 798.17 546.61 797.85 546.12 798.18 546.01 798.5 546.2 Z M 59.21 532.38 59.41 532.62 59.57 533.14 59.27 533.44 58.32 533.54 57.87 533.46 57.6 533.15 57.62 532.83 57.84 532.75 58.04 532.7 58.1 532.43 58.2 532.16 58.54 532.12 58.99 532.28 59.21 532.38 Z M 114.9 497.21 114.93 497.33 114.93 497.5 114.86 497.83 114.75 498.16 114.68 498.51 114.49 498.77 114.28 498.66 114.21 498.35 114.2 498.1 114.21 497.95 114.3 497.42 114.5 497.1 114.76 497.04 114.9 497.21 Z M 493.64 458.34 493.74 458.27 493.81 458.37 493.69 458.6 493.64 458.34 Z M 180.79 351.91 180.67 352.01 180.65 352.12 180.7 352.28 180.66 352.46 180.67 352.61 180.74 352.72 180.75 352.79 180.69 352.96 180.51 353.14 180.27 353.15 180.02 353.19 179.68 353.37 179.32 353.36 179.13 353.18 178.99 353.11 178.89 353.04 178.84 352.92 178.75 352.75 178.59 352.53 178.56 352.34 178.74 352.23 178.66 352.17 178.38 352.27 178.18 352.53 177.99 352.56 177.9 352.48 177.89 352.32 177.96 352.03 178.18 351.76 178.52 351.58 179.03 351.71 179.99 352.41 180.19 352.48 180.27 352.32 180.15 352.06 180.28 351.91 180.67 351.86 180.79 351.91 Z M 188.78 340.75 189.2 340.93 189.36 341.13 189.27 341.28 189.03 341.53 188.75 341.75 188.49 341.86 188.24 341.9 188.04 342.02 187.92 341.95 187.93 341.68 187.98 341.4 188.09 341.13 188.24 341 188.38 340.98 188.45 340.92 188.48 340.83 188.78 340.75 Z M 193.99 333.17 194.14 333.33 194.17 333.6 194.1 334.03 193.97 334.31 193.61 334.38 193.42 334.46 193.5 334.7 193.34 334.61 193.02 334.39 192.96 334.09 193.08 333.76 192.99 333.56 192.78 333.44 192.76 333.26 193.14 332.74 193.21 332.73 193.22 332.83 193.31 332.79 193.52 332.63 193.73 332.56 193.98 332.66 194.15 332.81 194.07 333 193.99 333.17 Z M 248.36 329.43 248.53 329.63 248.6 329.86 248.58 330.07 248.39 330.26 248.04 330.41 247.88 330.3 247.81 329.97 247.79 329.65 247.89 329.35 248.01 329.21 248.18 329.3 248.25 329.35 248.36 329.43 Z M 154.23 327.48 154.31 327.58 154.45 327.91 154.42 328.1 154.1 328.42 153.78 328.84 153.6 328.89 153.37 328.85 152.9 328.59 152.7 328.52 152.57 328.26 152.59 327.46 152.55 327.25 152.62 327.08 152.85 327.05 153.13 327.18 153.3 327.46 153.37 327.76 153.46 327.92 153.56 327.98 153.59 327.9 153.57 327.84 153.55 327.75 153.48 327.53 153.37 327.3 153.28 327.04 153.42 326.98 154.04 327.34 154.23 327.48 Z M 155.6 326.04 155.66 326.33 155.73 326.88 155.63 327.16 155.44 327.23 155.38 327.35 155.46 327.44 155.5 327.6 155.39 327.84 155.27 327.83 155.22 327.62 155.06 327.51 154.83 327.48 154.76 327.41 154.85 327.32 154.85 327.19 154.75 327.05 154.64 326.95 154.49 326.86 154.13 326.5 153.97 326.45 153.8 326.51 153.74 326.34 154 326.12 154.46 326.24 154.86 326.62 154.99 326.67 154.92 326.35 154.98 326.28 155.2 326.39 155.32 326.27 155.35 325.99 155.43 325.89 155.55 325.98 155.6 326.04 Z M 157.52 325.38 157.56 325.59 157.58 325.67 157.53 326.52 157.42 326.71 157.27 326.71 157.25 326.49 157.16 326.44 156.97 326.28 156.72 326.23 156.36 326.35 156.23 326.3 156.13 326.17 156.02 326.11 155.98 326.05 155.88 325.65 155.9 325.42 156.11 325.42 156.59 325.64 156.69 325.62 156.66 325.5 156.52 325.37 156.39 325.21 156.35 325.06 156.28 324.95 156.27 324.86 156.36 324.78 156.41 324.71 156.41 324.63 156.61 324.62 157.05 324.75 157.34 324.95 157.44 325.16 157.52 325.38 Z M 160.29 315.1 160.49 315.49 160.66 315.7 160.65 315.89 160.26 316.16 160.08 316.45 159.87 316.47 159.46 316.4 159.17 316.24 159.01 316.12 158.86 316.09 158.73 316.13 158.76 315.9 159.1 315.53 159.47 315.38 159.71 315.32 160.1 315.06 160.29 315.1 Z M 171.09 310.11 171.54 310.06 171.62 310.26 171.41 310.51 171.06 310.64 170.67 310.59 170.35 310.46 170.15 310.52 170.08 310.64 169.96 310.65 169.74 310.63 169.83 310.39 170.29 310.02 170.73 309.77 170.99 309.78 171.07 309.96 171.09 310.11 Z M 250.4 296.74 250.46 296.81 250.47 297.08 250.43 297.36 250.39 297.52 250.28 297.64 250.23 297.75 250.22 298.01 249.86 298.29 249.35 298.39 249.05 298.22 249 297.88 249.24 297.59 249.5 297.38 249.69 297.26 249.8 297.22 249.96 297.13 250.27 296.89 250.4 296.74 Z M 262.02 292.62 262.16 292.6 262.23 292.71 262.04 292.98 260.78 294.06 260.33 294.24 260.05 294.05 260.05 293.6 260.13 293.26 260.27 293.13 260.43 293.14 260.56 293.17 260.49 292.96 260.29 292.58 260.46 292.24 261.04 292.13 261.45 292.27 261.59 292.46 261.75 292.61 262.02 292.62 Z M 252.9 292.04 253.32 292.24 253.48 292.55 253.35 292.8 253.12 292.93 252.93 292.99 252.87 292.95 252.86 292.78 252.72 292.7 252.51 292.71 251.85 292.44 251.62 292.22 251.78 291.96 252.14 291.88 252.65 291.99 252.9 292.04 Z M 257.59 289.98 257.78 289.8 257.88 290.04 257.78 290.63 257.54 291.12 257.48 291.4 257.19 291.63 256.61 291.74 256.1 291.75 255.76 291.57 255.58 291.23 255.67 290.93 255.86 290.81 255.94 290.79 256.69 290.5 256.97 290.51 257.26 290.35 257.59 289.98 Z M 242.61 289.28 242.76 289.51 242.79 289.74 242.78 289.86 242.28 290.3 241.52 290.85 241.09 290.98 240.8 290.82 240.78 290.59 241.28 289.93 241.59 289.59 242 289.38 242.36 289.23 242.61 289.28 Z M 278.01 286.92 278.24 287.22 278.27 287.56 278.13 287.75 277.94 287.87 277.77 287.99 277.69 288.06 277.5 287.99 277.31 287.69 277.4 287.38 277.74 287.03 277.82 286.89 278.01 286.92 Z M 316.29 286.04 317.21 285.42 317.63 285.9 316.79 286.4 316.43 286.26 316.29 286.04 Z M 286.58 284.91 286.33 284.81 286.26 284.75 286.3 284.68 286.5 284.57 286.73 284.54 287.17 284.29 287.46 284.23 287.56 284.31 287.77 284.46 287.93 284.47 288 284.5 287.96 284.74 287.48 285.29 287.28 285.26 287.06 285.11 287.04 285.1 286.58 284.91 Z M 359.65 284.34 359.83 284.15 360.09 284.19 360.03 284.4 359.92 284.61 359.63 284.77 359.42 284.89 359.28 284.69 359.15 284.48 359.65 284.34 Z M 359.6 283.45 359.76 283.27 360.11 283.22 359.92 283.43 359.94 283.61 359.57 283.67 359.19 283.91 358.73 283.99 358.55 283.87 358.98 283.71 359.6 283.45 Z M 357.24 274.58 357.57 274.58 357.89 274.95 357.95 275.28 357.66 275.35 357.67 275.52 357.48 275.54 357.24 274.58 Z M 363.66 216.08 363.59 216.27 363.57 216.48 363.61 216.7 363.42 216.91 363 217.06 362.52 217.08 362.06 217.21 361.72 217.38 361.48 217.39 361.07 217.5 360.98 217.49 360.75 217.22 360.25 216.71 359.99 216.31 360.15 216.12 360.36 216.21 360.46 216.4 360.59 216.46 360.74 216.35 360.92 216.28 361.15 216.28 361.38 216.21 361.57 216.1 361.75 216.06 361.94 216.11 362.14 216.26 362.4 216.41 362.65 216.38 362.84 216.27 363.12 216.01 363.5 215.89 363.66 216.08 Z M 18.17 509.43 18.13 509.44 18.02 509.42 18.08 509.27 18.17 509.43 Z M 16.61 508.85 16.18 508.85 15.74 508.94 15.8 508.66 16.25 508.55 16.4 508.55 16.61 508.85 Z M 19.89 504.56 19.86 504.59 19.85 504.53 19.89 504.56 Z" fill-rule="evenodd"/>
</g>
</svg>